<svg xmlns="http://www.w3.org/2000/svg"><style>:root svg:not(:target){display:none}</style><svg viewBox="0 0 24 24" fill="none" id="burger-icon"><line y1="3" x2="24" y2="3" stroke="black" stroke-width="2"></line><line y1="11" x2="24" y2="11" stroke="black" stroke-width="2"></line><line y1="19" x2="24" y2="19" stroke="black" stroke-width="2"></line></svg><svg viewBox="0 0 50 53" fill="none" id="cat-back"><circle cx="25" cy="28" r="25" fill="#68B738"></circle><g clip-path="url(#cat-back_0)"><path d="M35.2034 0H35.008C34.6778 0.187081 34.415 0.473924 34.2571 0.819588C33.968 1.37738 33.7453 1.96735 33.5937 2.57732C33.5612 2.76073 33.4688 2.92811 33.331 3.05315C33.1932 3.17818 33.0179 3.25377 32.8326 3.26804C32.2658 3.36597 31.7288 3.59243 31.2626 3.93012C30.7965 4.26781 30.4135 4.7078 30.1429 5.21649C29.7708 5.87697 29.4526 6.5665 29.1914 7.27835C28.4611 9.17526 27.9006 11.134 27.2114 13.0464C26.8874 13.9175 26.872 13.9175 25.8949 13.9175C24.7274 13.9175 24.8097 13.7371 24.7943 15.0258C24.7943 15.433 24.9177 15.6392 25.3497 15.6186C25.4834 15.6186 25.684 15.5515 25.7354 15.7268C25.7869 15.9021 25.612 15.9794 25.5091 16.0825C24.8994 16.7029 24.1276 17.1388 23.2823 17.3402C22.3051 17.6031 21.3074 17.8093 20.356 18.1289C17.9131 18.9485 15.6554 20.0928 13.8966 22.0309C12.8681 23.2347 12.0445 24.6001 11.4589 26.0722C9.57143 30.5258 8.656 35.2165 7.94629 39.9536C7.612 42.1753 7.37543 44.4072 7.19543 46.6546C7.10286 47.7577 7 48.8763 7 50H24.1411C24.1696 49.7731 24.1283 49.5429 24.0229 49.3402C23.858 48.9289 23.5901 48.5672 23.2451 48.29C22.9 48.0128 22.4895 47.8295 22.0531 47.7577C21.6931 47.6753 21.652 47.567 21.8731 47.2835C22.2338 46.801 22.5103 46.2607 22.6909 45.6856C23.5291 43.2062 23.8531 40.6186 24.2594 38.0567C24.4889 36.0999 25.0894 34.2051 26.0286 32.4742C26.7611 31.2002 27.7382 30.0842 28.9034 29.1907C29.3303 28.866 29.3457 28.866 29.4177 29.4175C29.4691 29.7835 29.4794 30.1598 29.5051 30.5309C29.6595 32.9662 29.6285 35.4097 29.4126 37.8402C29.2184 39.7242 29.1926 41.6217 29.3354 43.5103C29.5399 45.7029 29.9304 47.8739 30.5029 50H37.3429C37.2536 49.442 36.9973 48.9243 36.6078 48.5156C36.2184 48.1069 35.7143 47.8264 35.1623 47.7113C34.5177 47.6087 33.8587 47.6438 33.2286 47.8144C32.92 47.8866 32.7914 47.8144 32.7657 47.4794C32.5529 44.7505 32.7261 42.0051 33.28 39.3247C33.966 36.2304 34.4912 33.1025 34.8537 29.9536C34.9887 28.6819 35.3881 27.4528 36.0263 26.3454C36.6383 25.2526 37.1731 24.1186 37.7749 23.0206C38.0138 22.6214 38.1575 22.1723 38.195 21.7083C38.2325 21.2443 38.1626 20.7779 37.9909 20.3454C37.852 19.9794 37.7183 19.6082 37.5486 19.2577C37.0343 18.2526 36.52 17.2577 36.0469 16.2423C35.7949 15.7268 35.8514 15.6649 36.412 15.6495C37.2503 15.6495 37.2503 15.6495 37.2657 14.8041C37.2657 14.6907 37.2657 14.5773 37.2657 14.4639C37.2657 14.1082 37.132 13.9124 36.7514 13.9485C36.4943 13.9485 36.2371 13.9485 35.9697 13.9485C35.6149 13.9485 35.512 13.799 35.5994 13.433C35.7729 12.838 36.1142 12.306 36.5823 11.9009C37.0503 11.4958 37.6252 11.2349 38.2377 11.1495C39.3772 11.0505 40.5251 11.1252 41.6423 11.3711C41.7712 11.4118 41.9109 11.4001 42.0312 11.3383C42.1515 11.2766 42.2427 11.1699 42.2851 11.0412C42.4909 10.5258 42.7171 10.0103 42.9486 9.49484C43.001 9.40339 43.0242 9.29801 43.015 9.19293C43.0058 9.08785 42.9647 8.98812 42.8971 8.90722C41.2514 6.81443 39.4669 4.86082 37.0343 3.60825C36.9168 3.55754 36.8138 3.47814 36.7347 3.3773C36.6557 3.27646 36.6031 3.15738 36.5817 3.03093C36.444 2.29408 36.225 1.57487 35.9286 0.886598C35.7895 0.519904 35.5349 0.20865 35.2034 0V0Z" fill="black"></path></g><defs><clipPath id="cat-back_0"><rect width="36" height="50" fill="white" transform="translate(7)"></rect></clipPath></defs></svg><svg viewBox="0 0 268 112" fill="none" id="cat-pro-tablet"><path d="M246.236 11.5137C248.545 7.83987 251.614 4.70291 255.236 2.31371C257.236 0.913709 258.436 0.913708 259.636 3.51371C261.236 7.31371 262.636 11.3137 261.436 15.5137C261.218 16.226 261.177 16.9809 261.316 17.7128C261.456 18.4447 261.772 19.1315 262.236 19.7137C263.436 21.3137 264.436 22.9137 265.436 24.3137C266.797 26.0412 267.68 28.0963 267.996 30.2728C268.312 32.4492 268.05 34.6705 267.236 36.7137C266.502 38.6973 266.363 40.8522 266.836 42.9137C267.236 44.8937 267.236 46.9337 266.836 48.9137C266.675 50.3965 266.075 51.7975 265.113 52.9375C264.151 54.0775 262.871 54.9048 261.436 55.3137C258.878 55.8005 256.595 57.2275 255.036 59.3137C254.848 59.6209 254.583 59.8743 254.267 60.0495C253.952 60.2246 253.597 60.3156 253.236 60.3137C250.836 60.7137 244.836 55.3137 244.836 52.9137V51.7137C245.036 44.5137 244.636 43.9137 238.036 40.9137C236.655 40.4265 235.417 39.6015 234.436 38.5137C233.236 36.9137 231.636 37.1137 229.836 37.7137C228.036 38.3137 227.036 39.5137 227.236 41.5137C227.84 46.3554 228.04 51.2388 227.836 56.1137C227.85 56.6701 227.986 57.2165 228.236 57.7137C234.436 66.7137 236.836 77.3137 239.836 87.5137C242.236 95.3137 246.636 99.5137 254.636 100.114C255.917 100.216 257.187 100.416 258.436 100.714C260.08 100.978 261.607 101.729 262.819 102.87C264.031 104.011 264.873 105.489 265.236 107.114C266.636 111.314 265.836 112.314 261.636 112.314H248.636C246.953 112.399 245.303 111.825 244.036 110.714C242.012 109.005 239.713 107.653 237.236 106.714C234.499 105.703 232.129 103.891 230.436 101.514C228.094 98.2407 225.412 95.224 222.436 92.5137C216.836 86.7137 210.836 81.1137 205.636 75.1137C201.678 71.0253 199.395 65.6023 199.236 59.9137C199.236 58.1137 198.836 57.3137 196.836 58.1137C196.238 58.4937 195.546 58.7012 194.836 58.7137C189.236 58.7137 186.436 62.1137 184.436 67.1137C182.636 71.3137 180.236 75.3137 178.036 79.5137C176.789 82.1428 176.108 85.0046 176.036 87.9137C176.036 92.7137 177.236 94.3137 181.636 95.9137C184.436 96.9137 187.036 97.9137 188.436 100.714C190.036 103.914 189.636 104.714 186.236 104.914H172.636C171.852 104.991 171.064 104.821 170.382 104.426C169.7 104.031 169.16 103.432 168.836 102.714L165.236 96.7137C164.175 95.1482 163.496 93.3557 163.253 91.4801C163.01 89.6045 163.21 87.6981 163.836 85.9137C164.702 82.4407 164.77 78.8169 164.036 75.3137C163.532 72.8739 163.576 70.3527 164.164 67.9318C164.752 65.5108 165.869 63.2505 167.436 61.3137C168.636 59.9137 168.636 59.3137 166.636 58.9137C158.458 57.1765 150.53 54.4217 143.036 50.7137C142.983 50.7137 142.933 50.6926 142.895 50.6551C142.858 50.6176 142.836 50.5667 142.836 50.5137C136.436 48.1137 135.236 48.5137 133.436 55.1137C131.836 60.7137 130.236 66.3137 129.036 72.1137C127.636 78.5137 129.236 84.5137 131.236 90.5137C132.036 92.9137 134.436 92.7137 136.236 93.3137C140.236 94.5137 143.636 96.1137 145.236 100.314C146.636 103.514 146.436 103.914 143.036 103.914C139.636 103.914 136.236 103.714 132.636 103.914C129.599 103.969 126.634 102.98 124.236 101.114C114.636 94.7137 111.836 84.9137 111.036 74.3137C110.636 67.7137 107.036 62.5137 102.836 57.5137C102.036 56.5137 101.236 56.1137 100.036 56.9137C95.7434 59.2808 91.2614 61.2877 86.6365 62.9137C76.985 66.3217 68.5157 72.4306 62.2365 80.5137C59.8918 83.4637 58.3732 86.9839 57.8365 90.7137C57.2365 94.3137 58.2365 95.9137 61.8365 96.9137C65.4365 97.9137 67.2365 99.9137 67.6365 103.714C67.8365 105.314 67.2365 106.114 65.6365 106.114H49.4365C48.9063 106.076 48.393 105.911 47.9403 105.632C47.4876 105.354 47.1089 104.97 46.8365 104.514C44.3242 101.403 42.9798 97.5116 43.0365 93.5137C42.9315 86.6036 43.5346 79.7009 44.8365 72.9137C45.1034 70.8811 45.8623 68.9443 47.0473 67.2714C48.2323 65.5984 49.8075 64.2399 51.6365 63.3137C63.4365 57.7137 69.6365 47.1137 75.2365 36.1137C76.4365 33.9137 75.4365 33.5137 73.4365 33.7137C67.8391 34.4908 62.5358 36.6947 58.0365 40.1137C52.1448 44.4114 46.5949 49.1589 41.4365 54.3137C35.9358 59.901 28.6418 63.3709 20.8365 64.1137C6.23646 64.9137 -0.56354 56.7137 0.0364599 43.5137C0.170585 39.0129 1.86775 34.6993 4.83646 31.3137C5.8685 29.9757 7.27593 28.9757 8.87899 28.4413C10.4821 27.907 12.208 27.8625 13.8365 28.3137C16.8365 29.1137 17.6365 30.7137 16.4365 33.7137C15.8365 34.9137 15.0365 35.9137 14.4365 37.1137C13.5737 38.3396 12.8995 39.6879 12.4365 41.1137C10.2365 47.1137 13.2365 51.3137 19.4365 51.9137C26.0365 52.5137 31.4365 49.7137 36.4365 45.7137C42.4603 40.8902 47.8379 35.311 52.4365 29.1137C55.875 24.5885 60.2046 20.8163 65.1581 18.03C70.1116 15.2436 75.5837 13.5024 81.2365 12.9137C85.8365 12.3137 89.8365 10.3137 94.2365 9.11371C102.465 6.60492 111.034 5.39042 119.636 5.51371C123.621 5.67964 127.59 4.9269 131.236 3.31371C141.036 -0.686291 151.236 -0.686292 161.436 1.31371C169.436 2.91371 177.436 4.91371 185.236 6.91371C189.878 7.77866 194.651 7.64229 199.236 6.51371C208.014 4.28878 216.992 2.94875 226.036 2.51371C231.961 2.22544 237.867 3.39278 243.236 5.91371C247.236 7.71371 247.236 7.71371 246.236 11.5137Z" fill="black"></path></svg><svg viewBox="0 0 67 28" fill="none" id="cat-pro"><g clip-path="url(#cat-pro_0)"><path d="M60.5591 2.87843C61.1364 1.95997 61.9036 1.17573 62.8091 0.578427C63.3091 0.228427 63.6091 0.228427 63.9091 0.878427C64.3091 1.82843 64.6591 2.82843 64.3591 3.87843C64.3045 4.05651 64.2942 4.24523 64.3291 4.4282C64.3639 4.61117 64.4429 4.78288 64.5591 4.92843C64.8591 5.32843 65.1091 5.72843 65.3591 6.07843C65.6994 6.51031 65.9201 7.02408 65.9991 7.5682C66.078 8.11231 66.0125 8.66763 65.8091 9.17843C65.6256 9.67433 65.5908 10.213 65.7091 10.7284C65.809 11.2234 65.809 11.7334 65.7091 12.2284C65.6687 12.5991 65.5187 12.9494 65.2782 13.2344C65.0377 13.5194 64.7177 13.7262 64.3591 13.8284C63.7196 13.9501 63.1488 14.3069 62.7591 14.8284C62.7119 14.9052 62.6457 14.9686 62.5669 15.0124C62.488 15.0562 62.3993 15.0789 62.3091 15.0784C61.7091 15.1784 60.2091 13.8284 60.2091 13.2284V12.9284C60.2591 11.1284 60.1591 10.9784 58.5091 10.2284C58.1638 10.1066 57.8544 9.90037 57.6091 9.62843C57.3091 9.22843 56.9091 9.27843 56.4591 9.42843C56.0091 9.57843 55.7591 9.87843 55.8091 10.3784C55.9599 11.5889 56.0101 12.8097 55.9591 14.0284C55.9624 14.1675 55.9966 14.3041 56.0591 14.4284C57.6091 16.6784 58.2091 19.3284 58.9591 21.8784C59.5591 23.8284 60.6591 24.8784 62.6591 25.0284C62.9792 25.054 63.2968 25.1041 63.6091 25.1784C64.02 25.2444 64.4017 25.4322 64.7048 25.7174C65.0078 26.0027 65.2183 26.3723 65.3091 26.7784C65.6591 27.8284 65.4591 28.0784 64.4091 28.0784H61.1591C60.7384 28.0997 60.3259 27.9562 60.0091 27.6784C59.5031 27.2514 58.9282 26.9132 58.3091 26.6784C57.6247 26.4258 57.0323 25.9728 56.6091 25.3784C56.0234 24.5602 55.3531 23.806 54.6091 23.1284C53.2091 21.6784 51.7091 20.2784 50.4091 18.7784C49.4195 17.7563 48.8486 16.4006 48.8091 14.9784C48.8091 14.5284 48.7091 14.3284 48.2091 14.5284C48.0594 14.6234 47.8864 14.6753 47.7091 14.6784C46.3091 14.6784 45.6091 15.5284 45.1091 16.7784C44.6591 17.8284 44.0591 18.8284 43.5091 19.8784C43.1972 20.5357 43.0269 21.2511 43.0091 21.9784C43.0091 23.1784 43.3091 23.5784 44.4091 23.9784C45.1091 24.2284 45.7591 24.4784 46.1091 25.1784C46.5091 25.9784 46.4091 26.1784 45.5591 26.2284H42.1591C41.9631 26.2478 41.7659 26.2052 41.5955 26.1065C41.425 26.0078 41.2899 25.8581 41.2091 25.6784L40.3091 24.1784C40.0438 23.7871 39.874 23.3389 39.8132 22.87C39.7524 22.4011 39.8024 21.9245 39.9591 21.4784C40.1755 20.6102 40.1926 19.7042 40.0091 18.8284C39.8831 18.2185 39.8939 17.5882 40.0409 16.9829C40.1879 16.3777 40.4674 15.8126 40.8591 15.3284C41.1591 14.9784 41.1591 14.8284 40.6591 14.7284C38.6146 14.2941 36.6325 13.6054 34.7591 12.6784C34.7459 12.6784 34.7331 12.6732 34.7238 12.6638C34.7144 12.6544 34.7091 12.6417 34.7091 12.6284C33.1091 12.0284 32.8091 12.1284 32.3591 13.7784C31.9591 15.1784 31.5591 16.5784 31.2591 18.0284C30.9091 19.6284 31.3091 21.1284 31.8091 22.6284C32.0091 23.2284 32.6091 23.1784 33.0591 23.3284C34.0591 23.6284 34.9091 24.0284 35.3091 25.0784C35.6591 25.8784 35.6091 25.9784 34.7591 25.9784C33.9091 25.9784 33.0591 25.9284 32.1591 25.9784C31.3997 25.9922 30.6584 25.7451 30.0591 25.2784C27.6591 23.6784 26.9591 21.2284 26.7591 18.5784C26.6591 16.9284 25.7591 15.6284 24.7091 14.3784C24.5091 14.1284 24.3091 14.0284 24.0091 14.2284C22.9359 14.8202 21.8153 15.3219 20.6591 15.7284C18.2462 16.5804 16.1289 18.1077 14.5591 20.1284C13.9729 20.8659 13.5933 21.746 13.4591 22.6784C13.3091 23.5784 13.5591 23.9784 14.4591 24.2284C15.3591 24.4784 15.8091 24.9784 15.9091 25.9284C15.9591 26.3284 15.8091 26.5284 15.4091 26.5284H11.3591C11.2266 26.519 11.0982 26.4778 10.9851 26.4081C10.8719 26.3385 10.7772 26.2425 10.7091 26.1284C10.081 25.3508 9.74494 24.3779 9.75912 23.3784C9.73288 21.6509 9.88366 19.9252 10.2091 18.2284C10.2759 17.7203 10.4656 17.2361 10.7618 16.8178C11.0581 16.3996 11.4519 16.06 11.9091 15.8284C14.8591 14.4284 16.4091 11.7784 17.8091 9.02843C18.1091 8.47843 17.8591 8.37843 17.3591 8.42843C15.9598 8.62269 14.634 9.17368 13.5091 10.0284C12.0362 11.1029 10.6487 12.2897 9.35912 13.5784C7.98394 14.9753 6.16046 15.8427 4.20911 16.0284C0.559114 16.2284 -1.14089 14.1784 -0.990885 10.8784C-0.957354 9.75323 -0.533061 8.67482 0.209115 7.82843C0.467126 7.49393 0.818981 7.24392 1.21975 7.11033C1.62052 6.97674 2.05201 6.96563 2.45912 7.07843C3.20912 7.27843 3.40911 7.67843 3.10911 8.42843C2.95911 8.72843 2.75911 8.97843 2.60911 9.27843C2.39341 9.58491 2.22488 9.92198 2.10911 10.2784C1.55911 11.7784 2.30911 12.8284 3.85911 12.9784C5.50911 13.1284 6.85912 12.4284 8.10912 11.4284C9.61508 10.2226 10.9595 8.82775 12.1091 7.27843C12.9687 6.14713 14.0512 5.20407 15.2895 4.50749C16.5279 3.81091 17.8959 3.37559 19.3091 3.22843C20.4591 3.07843 21.4591 2.57843 22.5591 2.27843C24.6164 1.65123 26.7586 1.34761 28.9091 1.37843C29.9052 1.41991 30.8974 1.23172 31.8091 0.828427C34.2591 -0.171573 36.8091 -0.171573 39.3591 0.328427C41.3591 0.728427 43.3591 1.22843 45.3091 1.72843C46.4696 1.94467 47.6629 1.91057 48.8091 1.62843C51.0034 1.07219 53.248 0.737189 55.5091 0.628427C56.9904 0.55636 58.4667 0.848196 59.8091 1.47843C60.8091 1.92843 60.8091 1.92843 60.5591 2.87843Z" fill="black"></path></g><defs><clipPath id="cat-pro_0"><rect width="67" height="28" fill="white"></rect></clipPath></defs></svg><svg viewBox="0 0 36 50" fill="none" id="cat-slim"><g clip-path="url(#cat-slim_0)"><path d="M28.2034 0H28.008C27.6778 0.187081 27.415 0.473924 27.2571 0.819588C26.968 1.37738 26.7453 1.96735 26.5937 2.57732C26.5612 2.76073 26.4688 2.92811 26.331 3.05315C26.1932 3.17818 26.0179 3.25377 25.8326 3.26804C25.2658 3.36597 24.7288 3.59243 24.2626 3.93012C23.7965 4.26781 23.4135 4.7078 23.1429 5.21649C22.7708 5.87697 22.4526 6.5665 22.1914 7.27835C21.4611 9.17526 20.9006 11.134 20.2114 13.0464C19.8874 13.9175 19.872 13.9175 18.8949 13.9175C17.7274 13.9175 17.8097 13.7371 17.7943 15.0258C17.7943 15.433 17.9177 15.6392 18.3497 15.6186C18.4834 15.6186 18.684 15.5515 18.7354 15.7268C18.7869 15.9021 18.612 15.9794 18.5091 16.0825C17.8994 16.7029 17.1276 17.1388 16.2823 17.3402C15.3051 17.6031 14.3074 17.8093 13.356 18.1289C10.9131 18.9485 8.65543 20.0928 6.89657 22.0309C5.86814 23.2347 5.04455 24.6001 4.45886 26.0722C2.57143 30.5258 1.656 35.2165 0.946286 39.9536C0.612 42.1753 0.375429 44.4072 0.195429 46.6546C0.102857 47.7577 0 48.8763 0 50H17.1411C17.1696 49.7731 17.1283 49.5429 17.0229 49.3402C16.858 48.9289 16.5901 48.5672 16.2451 48.29C15.9 48.0128 15.4895 47.8295 15.0531 47.7577C14.6931 47.6753 14.652 47.567 14.8731 47.2835C15.2338 46.801 15.5103 46.2607 15.6909 45.6856C16.5291 43.2062 16.8531 40.6186 17.2594 38.0567C17.4889 36.0999 18.0894 34.2051 19.0286 32.4742C19.7611 31.2002 20.7382 30.0842 21.9034 29.1907C22.3303 28.866 22.3457 28.866 22.4177 29.4175C22.4691 29.7835 22.4794 30.1598 22.5051 30.5309C22.6595 32.9662 22.6285 35.4097 22.4126 37.8402C22.2184 39.7242 22.1926 41.6217 22.3354 43.5103C22.5399 45.7029 22.9304 47.8739 23.5029 50H30.3429C30.2536 49.442 29.9973 48.9243 29.6078 48.5156C29.2184 48.1069 28.7143 47.8264 28.1623 47.7113C27.5177 47.6087 26.8587 47.6438 26.2286 47.8144C25.92 47.8866 25.7914 47.8144 25.7657 47.4794C25.5529 44.7505 25.7261 42.0051 26.28 39.3247C26.966 36.2304 27.4912 33.1025 27.8537 29.9536C27.9887 28.6819 28.3881 27.4528 29.0263 26.3454C29.6383 25.2526 30.1731 24.1186 30.7749 23.0206C31.0138 22.6214 31.1575 22.1723 31.195 21.7083C31.2325 21.2443 31.1626 20.7779 30.9909 20.3454C30.852 19.9794 30.7183 19.6082 30.5486 19.2577C30.0343 18.2526 29.52 17.2577 29.0469 16.2423C28.7949 15.7268 28.8514 15.6649 29.412 15.6495C30.2503 15.6495 30.2503 15.6495 30.2657 14.8041C30.2657 14.6907 30.2657 14.5773 30.2657 14.4639C30.2657 14.1082 30.132 13.9124 29.7514 13.9485C29.4943 13.9485 29.2371 13.9485 28.9697 13.9485C28.6149 13.9485 28.512 13.799 28.5994 13.433C28.7729 12.838 29.1142 12.306 29.5823 11.9009C30.0503 11.4958 30.6252 11.2349 31.2377 11.1495C32.3772 11.0505 33.5251 11.1252 34.6423 11.3711C34.7712 11.4118 34.9109 11.4001 35.0312 11.3383C35.1515 11.2766 35.2427 11.1699 35.2851 11.0412C35.4909 10.5258 35.7171 10.0103 35.9486 9.49484C36.001 9.40339 36.0242 9.29801 36.015 9.19293C36.0058 9.08785 35.9647 8.98812 35.8971 8.90722C34.2514 6.81443 32.4669 4.86082 30.0343 3.60825C29.9168 3.55754 29.8138 3.47814 29.7347 3.3773C29.6557 3.27646 29.6031 3.15738 29.5817 3.03093C29.444 2.29408 29.225 1.57487 28.9286 0.886598C28.7895 0.519904 28.5349 0.20865 28.2034 0V0Z" fill="black"></path></g><defs><clipPath id="cat-slim_0"><rect width="36" height="50" fill="white"></rect></clipPath></defs></svg><svg viewBox="0 0 20 20" fill="none" id="close-icon"><line y1="-0.75" x2="24.7577" y2="-0.75" transform="matrix(0.686589 -0.727046 0.686589 0.727046 2.00171 20)" stroke="black" stroke-width="1.5"></line><line y1="-0.75" x2="24.7577" y2="-0.75" transform="matrix(0.686589 0.727046 -0.686589 0.727046 1 2)" stroke="black" stroke-width="1.5"></line></svg><svg viewBox="0 0 26 30" fill="none" id="eat"><path fill-rule="evenodd" clip-rule="evenodd" d="M19.1173 0.0761497C19.491 -0.0786313 19.9211 0.00692445 20.2071 0.292922C21.1156 1.20142 22.3038 3.17065 23.2659 6.21082C24.2373 9.28039 25 13.5081 25 19C25 19.5523 24.5523 20 24 20H20.5V29C20.5 29.5523 20.0523 30 19.5 30C18.9477 30 18.5 29.5523 18.5 29V1.00003C18.5 0.595567 18.7436 0.230931 19.1173 0.0761497ZM20.5 18H22.9912C22.9053 13.1836 22.2051 9.48755 21.3591 6.81424C21.0807 5.93457 20.7885 5.1715 20.5 4.51895V18Z" fill="white"></path><path fill-rule="evenodd" clip-rule="evenodd" d="M6.5 0C7.05228 0 7.5 0.447715 7.5 1V29C7.5 29.5523 7.05228 30 6.5 30C5.94772 30 5.5 29.5523 5.5 29V1C5.5 0.447715 5.94772 0 6.5 0Z" fill="white"></path><path fill-rule="evenodd" clip-rule="evenodd" d="M2 0C2.55228 0 3 0.447715 3 1V6.5C3 7.05686 3.19203 7.81518 3.70088 8.41656C4.18001 8.98281 5.01446 9.5 6.49993 9.5C7.05221 9.5 7.49993 9.94771 7.49993 10.5C7.49993 11.0523 7.05221 11.5 6.49993 11.5C4.48547 11.5 3.06995 10.7672 2.1741 9.70844C1.30797 8.68482 1 7.44314 1 6.5V1C1 0.447715 1.44772 0 2 0Z" fill="white"></path><path fill-rule="evenodd" clip-rule="evenodd" d="M11 0C10.4477 0 10 0.447715 10 1V6.5C10 7.05686 9.80797 7.81518 9.29912 8.41656C8.81999 8.98281 7.9854 9.5 6.49993 9.5C5.94765 9.5 5.50007 9.94771 5.50007 10.5C5.50007 11.0523 5.94765 11.5 6.49993 11.5C8.51439 11.5 9.93005 10.7672 10.8259 9.70844C11.692 8.68482 12 7.44314 12 6.5V1C12 0.447715 11.5523 0 11 0Z" fill="white"></path></svg><svg viewBox="0 0 21 20" fill="none" id="email-icon"><g id="email-icon_0"><path id="email-icon_1" d="M1.50034 8.5V16.5H18.5041V8.5M1.50034 3.5H18.5041V5.5L10.0022 11.5L1.50034 5.5V3.5Z" stroke="black" stroke-linecap="round" stroke-linejoin="round"></path></g></svg><svg viewBox="0 0 24 19" fill="none" id="green-check"><path d="M9 15.499L1.4 6.90101L0 8.48485L9 18.6667L24 1.69697L22.6 0L9 15.499Z" fill="#68B738"></path></svg><svg viewBox="0 0 80 80" fill="none" id="icon-eat-desktop"><rect width="80" height="80" fill="#68B738"></rect><path fill-rule="evenodd" clip-rule="evenodd" d="M46.6173 25.0761C46.991 24.9214 47.4211 25.0069 47.7071 25.2929C48.6156 26.2014 49.8038 28.1706 50.7659 31.2108C51.7373 34.2804 52.5 38.5081 52.5 44C52.5 44.5523 52.0523 45 51.5 45H48V54C48 54.5523 47.5523 55 47 55C46.4477 55 46 54.5523 46 54V26C46 25.5956 46.2436 25.2309 46.6173 25.0761ZM48 43H50.4912C50.4053 38.1836 49.7051 34.4875 48.8591 31.8142C48.5807 30.9346 48.2885 30.1715 48 29.519V43Z" fill="white"></path><path fill-rule="evenodd" clip-rule="evenodd" d="M34 25C34.5523 25 35 25.4477 35 26V54C35 54.5523 34.5523 55 34 55C33.4477 55 33 54.5523 33 54V26C33 25.4477 33.4477 25 34 25Z" fill="white"></path><path fill-rule="evenodd" clip-rule="evenodd" d="M29.5 25C30.0523 25 30.5 25.4477 30.5 26V31.5C30.5 32.0569 30.692 32.8152 31.2009 33.4166C31.68 33.9828 32.5145 34.5 33.9999 34.5C34.5522 34.5 34.9999 34.9477 34.9999 35.5C34.9999 36.0523 34.5522 36.5 33.9999 36.5C31.9855 36.5 30.57 35.7672 29.6741 34.7084C28.808 33.6848 28.5 32.4431 28.5 31.5V26C28.5 25.4477 28.9477 25 29.5 25Z" fill="white"></path><path fill-rule="evenodd" clip-rule="evenodd" d="M38.5 25C37.9477 25 37.5 25.4477 37.5 26V31.5C37.5 32.0569 37.308 32.8152 36.7991 33.4166C36.32 33.9828 35.4854 34.5 33.9999 34.5C33.4476 34.5 33.0001 34.9477 33.0001 35.5C33.0001 36.0523 33.4476 36.5 33.9999 36.5C36.0144 36.5 37.43 35.7672 38.3259 34.7084C39.192 33.6848 39.5 32.4431 39.5 31.5V26C39.5 25.4477 39.0523 25 38.5 25Z" fill="white"></path></svg><svg viewBox="0 0 80 80" fill="none" id="icon-eat-tablet"><rect width="80" height="80" fill="#68B738"></rect><path fill-rule="evenodd" clip-rule="evenodd" d="M46.6173 25.0761C46.991 24.9214 47.4211 25.0069 47.7071 25.2929C48.6156 26.2014 49.8038 28.1706 50.7659 31.2108C51.7373 34.2804 52.5 38.5081 52.5 44C52.5 44.5523 52.0523 45 51.5 45H48V54C48 54.5523 47.5523 55 47 55C46.4477 55 46 54.5523 46 54V26C46 25.5956 46.2436 25.2309 46.6173 25.0761ZM48 43H50.4912C50.4053 38.1836 49.7051 34.4875 48.8591 31.8142C48.5807 30.9346 48.2885 30.1715 48 29.519V43Z" fill="white"></path><path fill-rule="evenodd" clip-rule="evenodd" d="M34 25C34.5523 25 35 25.4477 35 26V54C35 54.5523 34.5523 55 34 55C33.4477 55 33 54.5523 33 54V26C33 25.4477 33.4477 25 34 25Z" fill="white"></path><path fill-rule="evenodd" clip-rule="evenodd" d="M29.5 25C30.0523 25 30.5 25.4477 30.5 26V31.5C30.5 32.0569 30.692 32.8152 31.2009 33.4166C31.68 33.9828 32.5145 34.5 33.9999 34.5C34.5522 34.5 34.9999 34.9477 34.9999 35.5C34.9999 36.0523 34.5522 36.5 33.9999 36.5C31.9855 36.5 30.57 35.7672 29.6741 34.7084C28.808 33.6848 28.5 32.4431 28.5 31.5V26C28.5 25.4477 28.9477 25 29.5 25Z" fill="white"></path><path fill-rule="evenodd" clip-rule="evenodd" d="M38.5 25C37.9477 25 37.5 25.4477 37.5 26V31.5C37.5 32.0569 37.308 32.8152 36.7991 33.4166C36.32 33.9828 35.4854 34.5 33.9999 34.5C33.4476 34.5 33.0001 34.9477 33.0001 35.5C33.0001 36.0523 33.4476 36.5 33.9999 36.5C36.0144 36.5 37.43 35.7672 38.3259 34.7084C39.192 33.6848 39.5 32.4431 39.5 31.5V26C39.5 25.4477 39.0523 25 38.5 25Z" fill="white"></path></svg><svg viewBox="0 0 60 60" fill="none" id="icon-eat"><rect width="60" height="60" fill="#68B738"></rect><path fill-rule="evenodd" clip-rule="evenodd" d="M36.1173 15.0761C36.491 14.9214 36.9211 15.0069 37.2071 15.2929C38.1156 16.2014 39.3038 18.1706 40.2659 21.2108C41.2373 24.2804 42 28.5081 42 34C42 34.5523 41.5523 35 41 35H37.5V44C37.5 44.5523 37.0523 45 36.5 45C35.9477 45 35.5 44.5523 35.5 44V16C35.5 15.5956 35.7436 15.2309 36.1173 15.0761ZM37.5 33H39.9912C39.9053 28.1836 39.2051 24.4875 38.3591 21.8142C38.0807 20.9346 37.7885 20.1715 37.5 19.519V33Z" fill="white"></path><path fill-rule="evenodd" clip-rule="evenodd" d="M23.5 15C24.0523 15 24.5 15.4477 24.5 16V44C24.5 44.5523 24.0523 45 23.5 45C22.9477 45 22.5 44.5523 22.5 44V16C22.5 15.4477 22.9477 15 23.5 15Z" fill="white"></path><path fill-rule="evenodd" clip-rule="evenodd" d="M19 15C19.5523 15 20 15.4477 20 16V21.5C20 22.0569 20.192 22.8152 20.7009 23.4166C21.18 23.9828 22.0145 24.5 23.4999 24.5C24.0522 24.5 24.4999 24.9477 24.4999 25.5C24.4999 26.0523 24.0522 26.5 23.4999 26.5C21.4855 26.5 20.07 25.7672 19.1741 24.7084C18.308 23.6848 18 22.4431 18 21.5V16C18 15.4477 18.4477 15 19 15Z" fill="white"></path><path fill-rule="evenodd" clip-rule="evenodd" d="M28 15C27.4477 15 27 15.4477 27 16V21.5C27 22.0569 26.808 22.8152 26.2991 23.4166C25.82 23.9828 24.9854 24.5 23.4999 24.5C22.9476 24.5 22.5001 24.9477 22.5001 25.5C22.5001 26.0523 22.9476 26.5 23.4999 26.5C25.5144 26.5 26.93 25.7672 27.8259 24.7084C28.692 23.6848 29 22.4431 29 21.5V16C29 15.4477 28.5523 15 28 15Z" fill="white"></path></svg><svg viewBox="0 0 78 81" fill="none" id="icon-gift"><path d="M64.0156 35.6325H14.031C12.2766 35.6325 10.8494 34.2144 10.8494 32.4709V22.9989C10.8494 21.2554 12.2766 19.8367 14.031 19.8367H64.0149C65.7687 19.8367 67.1953 21.2554 67.1953 22.9989V32.4715C67.1959 34.2144 65.7693 35.6325 64.0156 35.6325ZM14.031 22.2598C13.6276 22.2598 13.2869 22.5984 13.2869 22.9989V32.4715C13.2869 32.8786 13.6208 33.21 14.031 33.21H64.0149C64.4244 33.21 64.7578 32.8786 64.7578 32.4715V22.9989C64.7578 22.5978 64.4171 22.2598 64.0149 22.2598H14.031Z" fill="white"></path><path d="M57.0447 68.0821H20.999C17.6218 68.0821 14.8741 65.3512 14.8741 61.9933V34.421C14.8741 33.7523 15.4201 33.2095 16.0929 33.2095C16.7656 33.2095 17.3116 33.7523 17.3116 34.421V61.9933C17.3116 64.0148 18.9661 65.6589 20.999 65.6589H57.0447C59.077 65.6589 60.7308 64.0148 60.7308 61.9933V34.421C60.7308 33.7523 61.2768 33.2095 61.9496 33.2095C62.6223 33.2095 63.1683 33.7523 63.1683 34.421V61.9933C63.1683 65.3512 60.4213 68.0821 57.0447 68.0821Z" fill="white"></path><path d="M39.0225 68.0821C38.3498 68.0821 37.8038 67.5399 37.8038 66.8705V34.421C37.8038 33.7523 38.3498 33.2095 39.0225 33.2095C39.6953 33.2095 40.2413 33.7523 40.2413 34.421V66.8699C40.2413 67.5399 39.6959 68.0821 39.0225 68.0821Z" fill="white"></path><path d="M23.8113 22.2556C19.9966 20.2008 18.5731 15.4442 20.6383 11.6513C22.7022 7.86033 27.4864 6.44461 31.303 8.4958C37.117 11.6265 40.2565 20.3607 40.3869 20.7308L38.0877 21.5347C38.0585 21.4523 35.1256 13.31 30.1433 10.627C27.5078 9.21063 24.2062 10.1884 22.7821 12.8047C21.3567 15.4236 22.339 18.7069 24.9734 20.1251L23.8113 22.2556Z" fill="white"></path><path d="M54.2313 22.2556L53.071 20.1244C54.3477 19.4369 55.2782 18.2974 55.6926 16.9156C56.1063 15.5332 55.9534 14.0732 55.2617 12.8053C54.5719 11.5362 53.4263 10.6118 52.0363 10.2005C50.6457 9.78913 49.1783 9.94058 47.9023 10.6269C42.9201 13.3093 39.9871 21.4517 39.9579 21.5341L37.6587 20.7302C37.7891 20.3601 40.928 11.6259 46.7421 8.49578C48.5897 7.50109 50.7182 7.28179 52.7316 7.87788C54.7468 8.47337 56.4061 9.81397 57.4061 11.6513C58.4073 13.4881 58.6285 15.6029 58.0289 17.6062C57.4287 19.6089 56.0801 21.2597 54.2313 22.2556Z" fill="white"></path><path d="M61.9496 51.8567H16.0929C15.4201 51.8567 14.8741 51.3142 14.8741 50.6456C14.8741 49.9771 15.4201 49.4346 16.0929 49.4346H61.9496C62.6223 49.4346 63.1683 49.9771 63.1683 50.6456C63.1683 51.3142 62.6229 51.8567 61.9496 51.8567Z" fill="white"></path></svg><svg viewBox="0 0 80 80" fill="none" id="icon-leaf-desktop"><rect width="80" height="80" fill="#68B738"></rect><g clip-path="url(#icon-leaf-desktop_0)"><path d="M52.7754 26.767C52.6751 26.317 52.2963 26 51.8641 26C51.8623 26 51.8604 26 51.8585 26C46.9207 26.033 34.9132 26.916 30.0654 34.38C27.5473 38.258 27.3307 43.293 29.4213 49.345C29.4373 49.392 29.4701 49.424 29.4916 49.467C28.7444 51.44 28.4548 52.753 28.4473 52.79C28.3385 53.33 28.6619 53.862 29.1682 53.978C29.2338 53.993 29.2994 54 29.3651 54C29.7973 54 30.1863 53.679 30.281 53.21C30.3007 53.108 32.6894 42.837 41.1344 36.832C41.5657 36.526 41.6819 35.905 41.3941 35.445C41.1063 34.985 40.5251 34.86 40.0938 35.168C35.3051 38.573 32.3557 43.176 30.6213 46.824C29.3801 42.246 29.7054 38.447 31.6076 35.519C35.351 29.755 44.2301 28.365 49.5898 28.071C48.4366 29.872 47.1766 33.174 47.1766 39C47.1766 42.12 46.3469 44.522 44.7119 46.14C42.0907 48.731 37.8326 48.974 34.7182 48.724C34.2007 48.679 33.7516 49.095 33.7123 49.646C33.6729 50.196 34.0601 50.676 34.5757 50.718C35.1991 50.769 35.8648 50.8 36.5566 50.8C39.7273 50.8 43.4257 50.137 45.986 47.606C48.0204 45.595 49.0516 42.7 49.0516 39.001C49.0516 29.902 52.2673 27.905 52.2832 27.896C52.6732 27.687 52.8776 27.219 52.7754 26.767Z" fill="white"></path></g><defs><clipPath id="icon-leaf-desktop_0"><rect width="30" height="32" fill="white" transform="translate(25 24)"></rect></clipPath></defs></svg><svg viewBox="0 0 80 80" fill="none" id="icon-leaf-tablet"><rect width="80" height="80" fill="#68B738"></rect><g clip-path="url(#icon-leaf-tablet_0)"><path d="M51.7754 27.767C51.6751 27.317 51.2963 27 50.8641 27C50.8623 27 50.8604 27 50.8585 27C45.9207 27.033 33.9132 27.916 29.0654 35.38C26.5473 39.258 26.3307 44.293 28.4213 50.345C28.4373 50.392 28.4701 50.424 28.4916 50.467C27.7444 52.44 27.4548 53.753 27.4473 53.79C27.3385 54.33 27.6619 54.862 28.1682 54.978C28.2338 54.993 28.2994 55 28.3651 55C28.7973 55 29.1863 54.679 29.281 54.21C29.3007 54.108 31.6894 43.837 40.1344 37.832C40.5657 37.526 40.6819 36.905 40.3941 36.445C40.1063 35.985 39.5251 35.86 39.0938 36.168C34.3051 39.573 31.3557 44.176 29.6213 47.824C28.3801 43.246 28.7054 39.447 30.6076 36.519C34.351 30.755 43.2301 29.365 48.5898 29.071C47.4366 30.872 46.1766 34.174 46.1766 40C46.1766 43.12 45.3469 45.522 43.7119 47.14C41.0907 49.731 36.8326 49.974 33.7182 49.724C33.2007 49.679 32.7516 50.095 32.7123 50.646C32.6729 51.196 33.0601 51.676 33.5757 51.718C34.1991 51.769 34.8648 51.8 35.5566 51.8C38.7273 51.8 42.4257 51.137 44.986 48.606C47.0204 46.595 48.0516 43.7 48.0516 40.001C48.0516 30.902 51.2673 28.905 51.2832 28.896C51.6732 28.687 51.8776 28.219 51.7754 27.767Z" fill="white"></path></g><defs><clipPath id="icon-leaf-tablet_0"><rect width="30" height="32" fill="white" transform="translate(24 25)"></rect></clipPath></defs></svg><svg viewBox="0 0 60 60" fill="none" id="icon-leaf"><rect width="60" height="60" fill="#68B738"></rect><g clip-path="url(#icon-leaf_0)"><path d="M42.8438 16.767C42.7434 16.317 42.3647 16 41.9325 16C41.9306 16 41.9288 16 41.9269 16C36.9891 16.033 24.9816 16.916 20.1337 24.38C17.6156 28.258 17.3991 33.293 19.4897 39.345C19.5056 39.392 19.5384 39.424 19.56 39.467C18.8128 41.44 18.5231 42.753 18.5156 42.79C18.4069 43.33 18.7303 43.862 19.2366 43.978C19.3022 43.993 19.3678 44 19.4334 44C19.8656 44 20.2547 43.679 20.3494 43.21C20.3691 43.108 22.7578 32.837 31.2028 26.832C31.6341 26.526 31.7503 25.905 31.4625 25.445C31.1747 24.985 30.5934 24.86 30.1622 25.168C25.3734 28.573 22.4241 33.176 20.6897 36.824C19.4484 32.246 19.7737 28.447 21.6759 25.519C25.4194 19.755 34.2984 18.365 39.6581 18.071C38.505 19.872 37.245 23.174 37.245 29C37.245 32.12 36.4153 34.522 34.7803 36.14C32.1591 38.731 27.9009 38.974 24.7866 38.724C24.2691 38.679 23.82 39.095 23.7806 39.646C23.7412 40.196 24.1284 40.676 24.6441 40.718C25.2675 40.769 25.9331 40.8 26.625 40.8C29.7956 40.8 33.4941 40.137 36.0544 37.606C38.0888 35.595 39.12 32.7 39.12 29.001C39.12 19.902 42.3356 17.905 42.3516 17.896C42.7416 17.687 42.9459 17.219 42.8438 16.767Z" fill="white"></path></g><defs><clipPath id="icon-leaf_0"><rect width="30" height="32" fill="white" transform="translate(15 14)"></rect></clipPath></defs></svg><svg viewBox="0 0 80 80" fill="none" id="icon-wash-desktop"><rect width="80" height="80" fill="#68B738"></rect><path d="M37.875 26C36.2437 26 34.975 27.3594 34.975 29.0812C34.975 30.8031 36.2437 32.1625 37.875 32.1625C39.5063 32.1625 40.775 30.8031 40.775 29.0812C40.775 27.3594 39.5063 26 37.875 26ZM37.875 27.1781C38.8719 27.1781 39.5969 28.0209 39.5969 29.0812C39.5969 30.0781 38.8084 30.9844 37.875 30.9844C36.8781 30.9844 36.1531 30.1416 36.1531 29.0812C36.1531 28.0844 36.9325 27.1781 37.875 27.1781ZM27 50.7406C27 51.9188 27.4078 52.9156 28.3594 53.7313C29.3563 54.5831 30.5344 54.5106 30.5344 54.5106H49.5656C50.345 54.5106 51.3781 54.13 52.1937 53.0606C53.0366 52.0638 52.9822 50.7044 52.9822 50.7044V33.4856C52.9822 33.0506 52.8734 32.8875 52.2391 32.8875C51.6047 32.8875 51.5503 33.1594 51.5503 33.4766V50.6953C51.5322 50.9944 51.4778 51.7828 50.8072 52.4172C50.0731 53.0425 49.3572 52.9609 49.3572 52.9609C49.3572 52.9609 31.2322 52.9609 30.3259 52.9338C29.9816 52.8703 29.4197 52.7434 28.8759 52.0275C28.3684 51.3025 28.4681 50.3962 28.4681 50.3962V33.1775C28.4681 32.7153 28.2325 32.5431 27.7431 32.5431C27.2538 32.5431 27 32.7153 27 33.1231V50.7406ZM43.3125 34.4281C42.225 34.6637 41.1375 34.8088 39.0531 36.7844C36.9688 38.7781 35.4281 38.6875 33.8875 38.5969C32.3469 38.5063 30.7156 37.0563 30.4438 36.6938C30.1084 36.3403 29.5375 36.5759 29.3562 36.8116C29.2022 37.0472 29.2022 37.455 29.465 37.8084C30.7338 38.9866 31.9119 39.8928 34.1775 40.0741C36.4431 40.2916 38.6181 39.2675 40.0681 37.8084C41.5181 36.3584 42.2431 36.0866 43.3306 35.9053C45.9587 35.4884 47.4994 36.5216 48.4056 37.1741C49.4025 38.2616 49.6744 37.9534 49.9462 37.6453C50.49 36.9294 49.7197 36.3766 48.8588 35.7422C47.0463 34.5641 45.3244 34.1109 43.3306 34.4734L43.3125 34.4281ZM34.25 41.5875C33.0719 41.5875 32.1656 42.5844 32.1656 43.8531C32.1656 45.1219 33.0719 46.1188 34.25 46.1188C35.4281 46.1188 36.3344 45.1219 36.3344 43.8531C36.3344 42.5844 35.4281 41.5875 34.25 41.5875ZM46.0312 42.3669C44.4906 42.3669 43.2219 43.7262 43.2219 45.3575C43.2219 46.9888 44.4906 48.3481 46.0312 48.3481C47.5719 48.3481 48.8406 46.9888 48.8406 45.3575C48.8406 43.7262 47.5719 42.3669 46.0312 42.3669ZM46.0312 43.8169C46.8288 43.8169 47.4813 44.5147 47.4813 45.3575C47.4813 46.2184 46.8288 46.8981 46.0312 46.8981C45.2337 46.8981 44.5812 46.2003 44.5812 45.3575C44.5812 44.4966 45.2337 43.8169 46.0312 43.8169Z" fill="white"></path></svg><svg viewBox="0 0 80 80" fill="none" id="icon-wash-tablet"><rect width="80" height="80" fill="#68B738"></rect><path d="M37.8609 26C36.2317 26 34.9646 27.3676 34.9646 29.0999C34.9646 30.8321 36.2317 32.1997 37.8609 32.1997C39.49 32.1997 40.7571 30.8321 40.7571 29.0999C40.7571 27.3676 39.49 26 37.8609 26ZM37.8609 27.1852C38.8564 27.1852 39.5805 28.0331 39.5805 29.0999C39.5805 30.1027 38.7931 31.0145 37.8609 31.0145C36.8653 31.0145 36.1412 30.1666 36.1412 29.0999C36.1412 28.097 36.9196 27.1852 37.8609 27.1852ZM27 50.89C27 52.0752 27.4073 53.0781 28.3576 53.8987C29.3532 54.7557 30.5298 54.6827 30.5298 54.6827H49.5363C50.3146 54.6827 51.3464 54.2998 52.161 53.224C53.0027 52.2211 52.9484 50.8535 52.9484 50.8535V33.5308C52.9484 33.0932 52.8398 32.9291 52.2062 32.9291C51.5727 32.9291 51.5184 33.2026 51.5184 33.5217V50.8444C51.5003 51.1453 51.446 51.9385 50.7762 52.5767C50.0431 53.2058 49.3281 53.1237 49.3281 53.1237C49.3281 53.1237 31.2267 53.1237 30.3216 53.0964C29.9777 53.0325 29.4165 52.9049 28.8735 52.1846C28.3667 51.4553 28.4662 50.5435 28.4662 50.5435V33.2208C28.4662 32.7559 28.2309 32.5826 27.7422 32.5826C27.2534 32.5826 27 32.7559 27 33.1661V50.89ZM43.2913 34.479C42.2052 34.7161 41.1191 34.8619 39.0375 36.8495C36.9558 38.8553 35.4172 38.7641 33.8785 38.6729C32.3399 38.5818 30.7108 37.123 30.4393 36.7583C30.1044 36.4027 29.5342 36.6398 29.3532 36.8768C29.1993 37.1139 29.1993 37.5242 29.4618 37.8797C30.7289 39.065 31.9055 39.9767 34.1682 40.159C36.4308 40.3778 38.603 39.3476 40.0511 37.8797C41.4992 36.421 42.2233 36.1475 43.3094 35.9651C45.9341 35.5457 47.4727 36.5851 48.3778 37.2415C49.3734 38.3356 49.6449 38.0256 49.9164 37.7156C50.4595 36.9954 49.6901 36.4392 48.8303 35.801C47.0202 34.6158 45.3005 34.1599 43.3094 34.5246L43.2913 34.479ZM34.2406 41.6816C33.064 41.6816 32.1589 42.6845 32.1589 43.9609C32.1589 45.2373 33.064 46.2402 34.2406 46.2402C35.4172 46.2402 36.3222 45.2373 36.3222 43.9609C36.3222 42.6845 35.4172 41.6816 34.2406 41.6816ZM46.0065 42.4657C44.4679 42.4657 43.2008 43.8333 43.2008 45.4744C43.2008 47.1155 44.4679 48.483 46.0065 48.483C47.5451 48.483 48.8122 47.1155 48.8122 45.4744C48.8122 43.8333 47.5451 42.4657 46.0065 42.4657ZM46.0065 43.9244C46.803 43.9244 47.4546 44.6265 47.4546 45.4744C47.4546 46.3405 46.803 47.0243 46.0065 47.0243C45.21 47.0243 44.5584 46.3223 44.5584 45.4744C44.5584 44.6082 45.21 43.9244 46.0065 43.9244Z" fill="white"></path></svg><svg viewBox="0 0 60 60" fill="none" id="icon-wash"><rect width="60" height="60" fill="#68B738"></rect><path d="M28.375 16C26.7437 16 25.475 17.3594 25.475 19.0812C25.475 20.8031 26.7437 22.1625 28.375 22.1625C30.0063 22.1625 31.275 20.8031 31.275 19.0812C31.275 17.3594 30.0063 16 28.375 16ZM28.375 17.1781C29.3719 17.1781 30.0969 18.0209 30.0969 19.0812C30.0969 20.0781 29.3084 20.9844 28.375 20.9844C27.3781 20.9844 26.6531 20.1416 26.6531 19.0812C26.6531 18.0844 27.4325 17.1781 28.375 17.1781ZM17.5 40.7406C17.5 41.9188 17.9078 42.9156 18.8594 43.7313C19.8563 44.5831 21.0344 44.5106 21.0344 44.5106H40.0656C40.845 44.5106 41.8781 44.13 42.6937 43.0606C43.5366 42.0638 43.4822 40.7044 43.4822 40.7044V23.4856C43.4822 23.0506 43.3734 22.8875 42.7391 22.8875C42.1047 22.8875 42.0503 23.1594 42.0503 23.4766V40.6953C42.0322 40.9944 41.9778 41.7828 41.3072 42.4172C40.5731 43.0425 39.8572 42.9609 39.8572 42.9609C39.8572 42.9609 21.7322 42.9609 20.8259 42.9338C20.4816 42.8703 19.9197 42.7434 19.3759 42.0275C18.8684 41.3025 18.9681 40.3962 18.9681 40.3962V23.1775C18.9681 22.7153 18.7325 22.5431 18.2431 22.5431C17.7538 22.5431 17.5 22.7153 17.5 23.1231V40.7406ZM33.8125 24.4281C32.725 24.6637 31.6375 24.8088 29.5531 26.7844C27.4688 28.7781 25.9281 28.6875 24.3875 28.5969C22.8469 28.5063 21.2156 27.0563 20.9438 26.6938C20.6084 26.3403 20.0375 26.5759 19.8562 26.8116C19.7022 27.0472 19.7022 27.455 19.965 27.8084C21.2338 28.9866 22.4119 29.8928 24.6775 30.0741C26.9431 30.2916 29.1181 29.2675 30.5681 27.8084C32.0181 26.3584 32.7431 26.0866 33.8306 25.9053C36.4587 25.4884 37.9994 26.5216 38.9056 27.1741C39.9025 28.2616 40.1744 27.9534 40.4462 27.6453C40.99 26.9294 40.2197 26.3766 39.3588 25.7422C37.5463 24.5641 35.8244 24.1109 33.8306 24.4734L33.8125 24.4281ZM24.75 31.5875C23.5719 31.5875 22.6656 32.5844 22.6656 33.8531C22.6656 35.1219 23.5719 36.1188 24.75 36.1188C25.9281 36.1188 26.8344 35.1219 26.8344 33.8531C26.8344 32.5844 25.9281 31.5875 24.75 31.5875ZM36.5312 32.3669C34.9906 32.3669 33.7219 33.7262 33.7219 35.3575C33.7219 36.9888 34.9906 38.3481 36.5312 38.3481C38.0719 38.3481 39.3406 36.9888 39.3406 35.3575C39.3406 33.7262 38.0719 32.3669 36.5312 32.3669ZM36.5312 33.8169C37.3288 33.8169 37.9813 34.5147 37.9813 35.3575C37.9813 36.2184 37.3288 36.8981 36.5312 36.8981C35.7337 36.8981 35.0812 36.2003 35.0812 35.3575C35.0812 34.4966 35.7337 33.8169 36.5312 33.8169Z" fill="white"></path></svg><svg viewBox="0 0 32 12" fill="none" id="icon_arrow"><line y1="6" x2="18" y2="6" stroke="black" stroke-width="2"></line><path d="M24 6L17.25 11.1962L17.25 0.803848L24 6Z" fill="black"></path></svg><svg viewBox="0 0 32 12" fill="none" id="icon_arrow_long"><g id="icon_arrow_long_0"><g id="icon_arrow_long_1"><line id="icon_arrow_long_2" y1="6" x2="26" y2="6" stroke="black" stroke-width="2"></line><path id="icon_arrow_long_3" d="M32 6L25.25 11.1962L25.25 0.803848L32 6Z" fill="black"></path></g></g></svg><svg viewBox="0 0 78 81" fill="none" id="icon_gift"><path d="M64.0156 35.6325H14.031C12.2766 35.6325 10.8494 34.2144 10.8494 32.4709V22.9989C10.8494 21.2554 12.2766 19.8367 14.031 19.8367H64.0149C65.7687 19.8367 67.1953 21.2554 67.1953 22.9989V32.4715C67.1959 34.2144 65.7693 35.6325 64.0156 35.6325ZM14.031 22.2598C13.6276 22.2598 13.2869 22.5984 13.2869 22.9989V32.4715C13.2869 32.8786 13.6208 33.21 14.031 33.21H64.0149C64.4244 33.21 64.7578 32.8786 64.7578 32.4715V22.9989C64.7578 22.5978 64.4171 22.2598 64.0149 22.2598H14.031Z" fill="white"></path><path d="M57.0447 68.0821H20.999C17.6218 68.0821 14.8741 65.3512 14.8741 61.9933V34.421C14.8741 33.7523 15.4201 33.2095 16.0929 33.2095C16.7656 33.2095 17.3116 33.7523 17.3116 34.421V61.9933C17.3116 64.0148 18.9661 65.6589 20.999 65.6589H57.0447C59.077 65.6589 60.7308 64.0148 60.7308 61.9933V34.421C60.7308 33.7523 61.2768 33.2095 61.9496 33.2095C62.6223 33.2095 63.1683 33.7523 63.1683 34.421V61.9933C63.1683 65.3512 60.4213 68.0821 57.0447 68.0821Z" fill="white"></path><path d="M39.0225 68.0821C38.3498 68.0821 37.8038 67.5399 37.8038 66.8705V34.421C37.8038 33.7523 38.3498 33.2095 39.0225 33.2095C39.6953 33.2095 40.2413 33.7523 40.2413 34.421V66.8699C40.2413 67.5399 39.6959 68.0821 39.0225 68.0821Z" fill="white"></path><path d="M23.8113 22.2556C19.9966 20.2008 18.5731 15.4442 20.6383 11.6513C22.7022 7.86033 27.4864 6.44461 31.303 8.4958C37.117 11.6265 40.2565 20.3607 40.3869 20.7308L38.0877 21.5347C38.0585 21.4523 35.1256 13.31 30.1433 10.627C27.5078 9.21063 24.2062 10.1884 22.7821 12.8047C21.3567 15.4236 22.339 18.7069 24.9734 20.1251L23.8113 22.2556Z" fill="white"></path><path d="M54.2313 22.2556L53.071 20.1244C54.3477 19.4369 55.2782 18.2974 55.6926 16.9156C56.1063 15.5332 55.9534 14.0732 55.2617 12.8053C54.5719 11.5362 53.4263 10.6118 52.0363 10.2005C50.6457 9.78913 49.1783 9.94058 47.9023 10.6269C42.9201 13.3093 39.9871 21.4517 39.9579 21.5341L37.6587 20.7302C37.7891 20.3601 40.928 11.6259 46.7421 8.49578C48.5897 7.50109 50.7182 7.28179 52.7316 7.87788C54.7468 8.47337 56.4061 9.81397 57.4061 11.6513C58.4073 13.4881 58.6285 15.6029 58.0289 17.6062C57.4287 19.6089 56.0801 21.2597 54.2313 22.2556Z" fill="white"></path><path d="M61.9496 51.8567H16.0929C15.4201 51.8567 14.8741 51.3142 14.8741 50.6456C14.8741 49.9771 15.4201 49.4346 16.0929 49.4346H61.9496C62.6223 49.4346 63.1683 49.9771 63.1683 50.6456C63.1683 51.3142 62.6229 51.8567 61.9496 51.8567Z" fill="white"></path></svg><svg viewBox="0 0 80 80" fill="none" id="icone-time-desktop"><rect width="80" height="80" fill="#68B738"></rect><path d="M32.538 25C31.475 25 31.475 26.5831 32.538 26.5831H39.1815V28.1873C32.3786 28.62 27 34.4142 27 41.4854C27 45.4959 28.7432 49.1159 31.4963 51.5539C31.9746 51.976 32.0384 52.7254 31.6026 53.1897L30.0719 54.7412C29.3279 55.4272 30.4333 56.4931 31.103 55.7438L33.1014 53.7069C33.4521 53.3692 33.973 53.2847 34.4088 53.4958C36.1274 54.3397 38.0169 54.784 39.9341 54.795C41.8513 54.8059 43.7459 54.3833 45.4742 53.5591C45.8993 53.348 46.4308 53.4325 46.771 53.7702L48.7055 55.7438C49.3858 56.377 50.3638 55.4272 49.7472 54.7412L48.3016 53.2636C47.8552 52.8098 47.919 52.0605 48.4079 51.6277C49.8584 50.3585 51.0186 48.7959 51.8106 47.0447C52.6026 45.2936 53.0081 43.3944 52.9999 41.4748C52.9999 34.4036 47.5894 28.5989 40.7759 28.1873V26.5831H47.4194C48.4823 26.5831 48.4823 25 47.4194 25H32.538ZM28.435 41.4748C28.435 34.9419 33.6116 29.6543 39.9999 29.6543C46.3777 29.6543 51.5543 34.9419 51.5543 41.4748C51.5543 48.0183 46.3777 53.3164 39.9999 53.3164C33.6222 53.3164 28.435 48.0183 28.435 41.4748ZM39.1921 33.3799C39.1921 32.2823 40.8503 32.2823 40.8503 33.3799V42.0131C40.8503 42.237 40.7607 42.4517 40.6012 42.6101C40.4418 42.7684 40.2255 42.8574 39.9999 42.8574C39.7875 42.8574 39.5836 42.7743 39.4324 42.6262C39.2812 42.478 39.1949 42.2767 39.1921 42.0658V33.3799ZM34.2175 35.9973C34.5247 35.9973 34.8194 35.8761 35.0367 35.6603C35.254 35.4446 35.3761 35.152 35.3761 34.8469C35.3761 34.5418 35.254 34.2492 35.0367 34.0334C34.8194 33.8177 34.5247 33.6965 34.2175 33.6965C33.9307 33.7239 33.6645 33.8563 33.4707 34.0681C33.277 34.2798 33.1697 34.5556 33.1697 34.8416C33.1697 35.1277 33.277 35.4034 33.4707 35.6152C33.6645 35.8269 33.9307 35.9593 34.2175 35.9867V35.9973ZM45.7718 35.9973C46.0791 35.9973 46.3738 35.8761 46.5911 35.6603C46.8083 35.4446 46.9304 35.152 46.9304 34.8469C46.9304 34.5418 46.8083 34.2492 46.5911 34.0334C46.3738 33.8177 46.0791 33.6965 45.7718 33.6965C45.485 33.7239 45.2188 33.8563 45.0251 34.0681C44.8313 34.2798 44.724 34.5556 44.724 34.8416C44.724 35.1277 44.8313 35.4034 45.0251 35.6152C45.2188 35.8269 45.485 35.9593 45.7718 35.9867V35.9973ZM35.3761 48.5882C35.3761 50.1185 33.0588 50.1185 33.0588 48.5882C33.0588 47.0579 35.3761 47.0579 35.3761 48.5882ZM39.9999 52.0288C40.1607 52.0441 40.3229 52.0259 40.4762 51.9754C40.6294 51.9248 40.7703 51.843 40.8899 51.7352C41.0094 51.6273 41.1049 51.4959 41.1703 51.3493C41.2356 51.2026 41.2694 51.044 41.2694 50.8837C41.2694 50.7233 41.2356 50.5648 41.1703 50.4181C41.1049 50.2715 41.0094 50.14 40.8899 50.0322C40.7703 49.9244 40.6294 49.8426 40.4762 49.792C40.3229 49.7414 40.1607 49.7232 39.9999 49.7386C39.7132 49.7659 39.4469 49.8984 39.2532 50.1101C39.0595 50.3219 38.9522 50.5976 38.9522 50.8837C38.9522 51.1697 39.0595 51.4455 39.2532 51.6572C39.4469 51.869 39.7132 52.0014 39.9999 52.0288ZM31.9109 41.6437C31.9263 41.8033 31.908 41.9643 31.857 42.1165C31.8061 42.2687 31.7237 42.4086 31.6151 42.5273C31.5065 42.646 31.3741 42.7408 31.2264 42.8057C31.0788 42.8706 30.919 42.9041 30.7575 42.9041C30.596 42.9041 30.4363 42.8706 30.2886 42.8057C30.141 42.7408 30.0086 42.646 29.9 42.5273C29.7914 42.4086 29.709 42.2687 29.658 42.1165C29.6071 41.9643 29.5888 41.8033 29.6042 41.6437C29.6318 41.3589 29.7652 41.0946 29.9785 40.9023C30.1917 40.7099 30.4695 40.6033 30.7575 40.6033C31.0456 40.6033 31.3234 40.7099 31.5366 40.9023C31.7499 41.0946 31.8833 41.3589 31.9109 41.6437ZM49.237 42.794C49.3978 42.8094 49.56 42.7912 49.7132 42.7406C49.8665 42.6901 50.0074 42.6082 50.127 42.5004C50.2465 42.3926 50.342 42.2611 50.4074 42.1145C50.4727 41.9679 50.5065 41.8093 50.5065 41.6489C50.5065 41.4886 50.4727 41.33 50.4074 41.1834C50.342 41.0367 50.2465 40.9053 50.127 40.7975C50.0074 40.6896 49.8665 40.6078 49.7132 40.5573C49.56 40.5067 49.3978 40.4885 49.237 40.5038C48.9502 40.5312 48.684 40.6637 48.4903 40.8754C48.2966 41.0871 48.1892 41.3629 48.1892 41.6489C48.1892 41.935 48.2966 42.2108 48.4903 42.4225C48.684 42.6342 48.9502 42.7667 49.237 42.794ZM46.9304 48.5987C46.9304 50.1185 44.6132 50.1185 44.6132 48.5882C44.6132 47.0579 46.9304 47.0579 46.9304 48.5882V48.5987Z" fill="white"></path></svg><svg viewBox="0 0 80 80" fill="none" id="icone-time-tablet"><rect width="80" height="80" fill="#68B738"></rect><path d="M32.5308 24C31.4692 24 31.4692 25.5927 32.5308 25.5927H39.1656V27.2066C32.3716 27.6419 27 33.471 27 40.5849C27 44.6196 28.741 48.2615 31.4905 50.7142C31.9682 51.1389 32.0319 51.8927 31.5966 52.3599L30.0679 53.9207C29.3248 54.6109 30.4289 55.6833 31.0977 54.9294L33.0934 52.8802C33.4437 52.5404 33.9639 52.4555 34.3992 52.6678C36.1155 53.5168 38.0026 53.9638 39.9173 53.9748C41.832 53.9859 43.7241 53.5607 45.4501 52.7315C45.8748 52.5192 46.4055 52.6041 46.7453 52.9439L48.6773 54.9294C49.3567 55.5665 50.3334 54.6109 49.7177 53.9207L48.2739 52.4343C47.8281 51.9777 47.8918 51.2238 48.3801 50.7885C49.8287 49.5116 50.9874 47.9396 51.7784 46.1778C52.5693 44.4161 52.9743 42.5055 52.9661 40.5743C52.9661 33.4604 47.5627 27.6206 40.758 27.2066V25.5927H47.3928C48.4544 25.5927 48.4544 24 47.3928 24H32.5308ZM28.4331 40.5743C28.4331 34.0019 33.603 28.6824 39.983 28.6824C46.3525 28.6824 51.5223 34.0019 51.5223 40.5743C51.5223 47.1572 46.3525 52.4873 39.983 52.4873C33.6136 52.4873 28.4331 47.1572 28.4331 40.5743ZM39.1762 32.4305C39.1762 31.3262 40.8323 31.3262 40.8323 32.4305V41.1158C40.8323 41.341 40.7428 41.5571 40.5836 41.7164C40.4243 41.8757 40.2083 41.9652 39.983 41.9652C39.7709 41.9652 39.5673 41.8816 39.4163 41.7326C39.2653 41.5836 39.179 41.381 39.1762 41.1689V32.4305ZM34.2081 35.0637C34.515 35.0637 34.8093 34.9417 35.0263 34.7247C35.2433 34.5076 35.3652 34.2133 35.3652 33.9063C35.3652 33.5994 35.2433 33.305 35.0263 33.088C34.8093 32.8709 34.515 32.749 34.2081 32.749C33.9217 32.7765 33.6558 32.9098 33.4623 33.1228C33.2689 33.3358 33.1617 33.6132 33.1617 33.901C33.1617 34.1888 33.2689 34.4662 33.4623 34.6792C33.6558 34.8922 33.9217 35.0255 34.2081 35.053V35.0637ZM45.7474 35.0637C46.0543 35.0637 46.3486 34.9417 46.5656 34.7247C46.7826 34.5076 46.9045 34.2133 46.9045 33.9063C46.9045 33.5994 46.7826 33.305 46.5656 33.088C46.3486 32.8709 46.0543 32.749 45.7474 32.749C45.461 32.7765 45.1951 32.9098 45.0016 33.1228C44.8082 33.3358 44.701 33.6132 44.701 33.901C44.701 34.1888 44.8082 34.4662 45.0016 34.6792C45.1951 34.8922 45.461 35.0255 45.7474 35.053V35.0637ZM35.3652 47.7306C35.3652 49.2702 33.051 49.2702 33.051 47.7306C33.051 46.191 35.3652 46.191 35.3652 47.7306ZM39.983 51.192C40.1436 51.2074 40.3056 51.1891 40.4586 51.1382C40.6117 51.0874 40.7524 51.005 40.8718 50.8966C40.9912 50.7881 41.0866 50.6558 41.1519 50.5083C41.2171 50.3608 41.2509 50.2013 41.2509 50.04C41.2509 49.8786 41.2171 49.7191 41.1519 49.5716C41.0866 49.4241 40.9912 49.2918 40.8718 49.1833C40.7524 49.0749 40.6117 48.9926 40.4586 48.9417C40.3056 48.8908 40.1436 48.8725 39.983 48.8879C39.6966 48.9155 39.4308 49.0487 39.2373 49.2617C39.0438 49.4747 38.9366 49.7522 38.9366 50.04C38.9366 50.3277 39.0438 50.6052 39.2373 50.8182C39.4308 51.0312 39.6966 51.1644 39.983 51.192ZM31.9045 40.7441C31.9199 40.9047 31.9016 41.0668 31.8507 41.2198C31.7999 41.3729 31.7176 41.5137 31.6091 41.6331C31.5007 41.7525 31.3684 41.8479 31.2209 41.9132C31.0735 41.9785 30.9139 42.0122 30.7527 42.0122C30.5914 42.0122 30.4319 41.9785 30.2844 41.9132C30.1369 41.8479 30.0047 41.7525 29.8962 41.6331C29.7878 41.5137 29.7055 41.3729 29.6546 41.2198C29.6037 41.0668 29.5854 40.9047 29.6009 40.7441C29.6284 40.4577 29.7616 40.1918 29.9746 39.9983C30.1875 39.8047 30.4649 39.6975 30.7527 39.6975C31.0404 39.6975 31.3178 39.8047 31.5307 39.9983C31.7437 40.1918 31.8769 40.4577 31.9045 40.7441ZM49.2081 41.9015C49.3686 41.9169 49.5307 41.8986 49.6837 41.8477C49.8368 41.7969 49.9775 41.7145 50.0969 41.6061C50.2163 41.4976 50.3116 41.3653 50.3769 41.2178C50.4422 41.0703 50.4759 40.9108 50.4759 40.7495C50.4759 40.5881 50.4422 40.4286 50.3769 40.2811C50.3116 40.1336 50.2163 40.0013 50.0969 39.8928C49.9775 39.7844 49.8368 39.702 49.6837 39.6512C49.5307 39.6003 49.3686 39.582 49.2081 39.5974C48.9217 39.625 48.6558 39.7582 48.4624 39.9712C48.2689 40.1842 48.1617 40.4617 48.1617 40.7495C48.1617 41.0372 48.2689 41.3147 48.4624 41.5277C48.6558 41.7407 48.9217 41.8739 49.2081 41.9015ZM46.9045 47.7412C46.9045 49.2702 44.5903 49.2702 44.5903 47.7306C44.5903 46.191 46.9045 46.191 46.9045 47.7306V47.7412Z" fill="white"></path></svg><svg viewBox="0 0 60 60" fill="none" id="icone-time"><rect width="60" height="60" fill="#68B738"></rect><path d="M23.1206 15C22.0538 15 22.0538 16.5831 23.1206 16.5831H29.7878V18.1873C22.9606 18.62 17.5627 24.4142 17.5627 31.4854C17.5627 35.4959 19.3122 39.1159 22.0751 41.5539C22.5552 41.976 22.6192 42.7254 22.1818 43.1897L20.6457 44.7412C19.8989 45.4272 21.0084 46.4931 21.6804 45.7438L23.686 43.7069C24.038 43.3692 24.5607 43.2847 24.9981 43.4958C26.7228 44.3397 28.6191 44.784 30.5432 44.795C32.4673 44.8059 34.3687 44.3833 36.1031 43.5591C36.5298 43.348 37.0632 43.4325 37.4045 43.7702L39.3461 45.7438C40.0288 46.377 41.0102 45.4272 40.3915 44.7412L38.9407 43.2636C38.4926 42.8098 38.5567 42.0605 39.0474 41.6277C40.5031 40.3585 41.6674 38.7959 42.4623 37.0447C43.2571 35.2936 43.6641 33.3944 43.6558 31.4748C43.6558 24.4036 38.226 18.5989 31.388 18.1873V16.5831H38.0553C39.122 16.5831 39.122 15 38.0553 15H23.1206ZM19.0029 31.4748C19.0029 24.9419 24.198 19.6543 30.6093 19.6543C37.0098 19.6543 42.205 24.9419 42.205 31.4748C42.205 38.0183 37.0098 43.3164 30.6093 43.3164C24.2087 43.3164 19.0029 38.0183 19.0029 31.4748ZM29.7985 23.3799C29.7985 22.2823 31.4627 22.2823 31.4627 23.3799V32.0131C31.4627 32.237 31.3728 32.4517 31.2127 32.6101C31.0527 32.7684 30.8356 32.8574 30.6093 32.8574C30.3961 32.8574 30.1915 32.7743 30.0397 32.6262C29.888 32.478 29.8013 32.2767 29.7985 32.0658V23.3799ZM24.8061 25.9973C25.1144 25.9973 25.4102 25.8761 25.6283 25.6603C25.8463 25.4446 25.9688 25.152 25.9688 24.8469C25.9688 24.5418 25.8463 24.2492 25.6283 24.0334C25.4102 23.8177 25.1144 23.6965 24.8061 23.6965C24.5183 23.7239 24.2511 23.8563 24.0567 24.0681C23.8622 24.2798 23.7545 24.5556 23.7545 24.8416C23.7545 25.1277 23.8622 25.4034 24.0567 25.6152C24.2511 25.8269 24.5183 25.9593 24.8061 25.9867V25.9973ZM36.4018 25.9973C36.7102 25.9973 37.0059 25.8761 37.224 25.6603C37.4421 25.4446 37.5646 25.152 37.5646 24.8469C37.5646 24.5418 37.4421 24.2492 37.224 24.0334C37.0059 23.8177 36.7102 23.6965 36.4018 23.6965C36.114 23.7239 35.8468 23.8563 35.6524 24.0681C35.458 24.2798 35.3503 24.5556 35.3503 24.8416C35.3503 25.1277 35.458 25.4034 35.6524 25.6152C35.8468 25.8269 36.114 25.9593 36.4018 25.9867V25.9973ZM25.9688 38.5882C25.9688 40.1185 23.6433 40.1185 23.6433 38.5882C23.6433 37.0579 25.9688 37.0579 25.9688 38.5882ZM30.6093 42.0288C30.7706 42.0441 30.9334 42.0259 31.0872 41.9754C31.241 41.9248 31.3824 41.843 31.5024 41.7352C31.6223 41.6273 31.7182 41.4959 31.7838 41.3493C31.8494 41.2026 31.8833 41.044 31.8833 40.8837C31.8833 40.7233 31.8494 40.5648 31.7838 40.4181C31.7182 40.2715 31.6223 40.14 31.5024 40.0322C31.3824 39.9244 31.241 39.8426 31.0872 39.792C30.9334 39.7414 30.7706 39.7232 30.6093 39.7386C30.3215 39.7659 30.0543 39.8984 29.8599 40.1101C29.6654 40.3219 29.5577 40.5976 29.5577 40.8837C29.5577 41.1697 29.6654 41.4455 29.8599 41.6572C30.0543 41.869 30.3215 42.0014 30.6093 42.0288ZM22.4912 31.6437C22.5067 31.8033 22.4883 31.9643 22.4372 32.1165C22.3861 32.2687 22.3034 32.4086 22.1944 32.5273C22.0854 32.646 21.9525 32.7408 21.8043 32.8057C21.6561 32.8706 21.4958 32.9041 21.3337 32.9041C21.1717 32.9041 21.0114 32.8706 20.8632 32.8057C20.7149 32.7408 20.5821 32.646 20.4731 32.5273C20.3641 32.4086 20.2814 32.2687 20.2303 32.1165C20.1792 31.9643 20.1608 31.8033 20.1763 31.6437C20.204 31.3589 20.3378 31.0946 20.5518 30.9023C20.7659 30.7099 21.0446 30.6033 21.3337 30.6033C21.6229 30.6033 21.9016 30.7099 22.1156 30.9023C22.3296 31.0946 22.4635 31.3589 22.4912 31.6437ZM39.8794 32.794C40.0408 32.8094 40.2036 32.7912 40.3574 32.7406C40.5112 32.6901 40.6526 32.6082 40.7726 32.5004C40.8925 32.3926 40.9884 32.2611 41.054 32.1145C41.1196 31.9679 41.1535 31.8093 41.1535 31.6489C41.1535 31.4886 41.1196 31.33 41.054 31.1834C40.9884 31.0367 40.8925 30.9053 40.7726 30.7975C40.6526 30.6896 40.5112 30.6078 40.3574 30.5573C40.2036 30.5067 40.0408 30.4885 39.8794 30.5038C39.5916 30.5312 39.3245 30.6637 39.13 30.8754C38.9356 31.0871 38.8279 31.3629 38.8279 31.6489C38.8279 31.935 38.9356 32.2108 39.13 32.4225C39.3245 32.6342 39.5916 32.7667 39.8794 32.794ZM37.5646 38.5987C37.5646 40.1185 35.239 40.1185 35.239 38.5882C35.239 37.0579 37.5646 37.0579 37.5646 38.5882V38.5987Z" fill="white"></path></svg><svg viewBox="0 0 24 24" fill="none" id="menu-icon"><line y1="3" x2="24" y2="3" stroke="black" stroke-width="2"></line><line y1="11" x2="24" y2="11" stroke="black" stroke-width="2"></line><line y1="19" x2="24" y2="19" stroke="black" stroke-width="2"></line></svg><svg viewBox="0 0 21 20" fill="none" id="phone-icon"><g id="phone-icon_0"><path id="phone-icon_1" d="M10.0022 10H18.5041M18.5041 10L16.0036 7.5M18.5041 10L16.0036 12.5M8.50191 2.5V7.5H5.50124V12.5H8.50191V17.5H6.00135C4.50102 17.5 3.50079 16.5 3.50079 15V5C3.50079 3.5 4.50102 2.5 6.00135 2.5H8.50191Z" stroke="black" stroke-linecap="round" stroke-linejoin="round"></path></g></svg><svg viewBox="0 0 30 30" fill="none" id="plus"><line x1="15" x2="15" y2="30" stroke="#D3D3D3" stroke-width="2"></line><line x1="30" y1="15" y2="15" stroke="#D3D3D3" stroke-width="2"></line></svg><svg viewBox="0 0 67 50" fill="none" id="puma-back"><circle cx="33" cy="25" r="25" fill="#68B738"></circle><g clip-path="url(#puma-back_0)"><path d="M60.5591 13.8784C61.1364 12.96 61.9036 12.1757 62.8091 11.5784C63.3091 11.2284 63.6091 11.2284 63.9091 11.8784C64.3091 12.8284 64.6591 13.8284 64.3591 14.8784C64.3045 15.0565 64.2942 15.2452 64.3291 15.4282C64.3639 15.6112 64.4429 15.7829 64.5591 15.9284C64.8591 16.3284 65.1091 16.7284 65.3591 17.0784C65.6994 17.5103 65.9201 18.0241 65.9991 18.5682C66.078 19.1123 66.0125 19.6676 65.8091 20.1784C65.6256 20.6743 65.5908 21.213 65.7091 21.7284C65.809 22.2234 65.809 22.7334 65.7091 23.2284C65.6687 23.5991 65.5187 23.9494 65.2782 24.2344C65.0377 24.5194 64.7177 24.7262 64.3591 24.8284C63.7196 24.9501 63.1488 25.3069 62.7591 25.8284C62.7119 25.9052 62.6457 25.9686 62.5669 26.0124C62.488 26.0562 62.3993 26.0789 62.3091 26.0784C61.7091 26.1784 60.2091 24.8284 60.2091 24.2284V23.9284C60.2591 22.1284 60.1591 21.9784 58.5091 21.2284C58.1638 21.1066 57.8544 20.9004 57.6091 20.6284C57.3091 20.2284 56.9091 20.2784 56.4591 20.4284C56.0091 20.5784 55.7591 20.8784 55.8091 21.3784C55.9599 22.5889 56.0101 23.8097 55.9591 25.0284C55.9624 25.1675 55.9966 25.3041 56.0591 25.4284C57.6091 27.6784 58.2091 30.3284 58.9591 32.8784C59.5591 34.8284 60.6591 35.8784 62.6591 36.0284C62.9792 36.054 63.2968 36.1041 63.6091 36.1784C64.02 36.2444 64.4017 36.4322 64.7048 36.7174C65.0078 37.0027 65.2183 37.3723 65.3091 37.7784C65.6591 38.8284 65.4591 39.0784 64.4091 39.0784H61.1591C60.7384 39.0997 60.3259 38.9562 60.0091 38.6784C59.5031 38.2514 58.9282 37.9132 58.3091 37.6784C57.6247 37.4258 57.0323 36.9728 56.6091 36.3784C56.0234 35.5602 55.3531 34.806 54.6091 34.1284C53.2091 32.6784 51.7091 31.2784 50.4091 29.7784C49.4195 28.7563 48.8486 27.4006 48.8091 25.9784C48.8091 25.5284 48.7091 25.3284 48.2091 25.5284C48.0594 25.6234 47.8864 25.6753 47.7091 25.6784C46.3091 25.6784 45.6091 26.5284 45.1091 27.7784C44.6591 28.8284 44.0591 29.8284 43.5091 30.8784C43.1972 31.5357 43.0269 32.2511 43.0091 32.9784C43.0091 34.1784 43.3091 34.5784 44.4091 34.9784C45.1091 35.2284 45.7591 35.4784 46.1091 36.1784C46.5091 36.9784 46.4091 37.1784 45.5591 37.2284H42.1591C41.9631 37.2478 41.7659 37.2052 41.5955 37.1065C41.425 37.0078 41.2899 36.8581 41.2091 36.6784L40.3091 35.1784C40.0438 34.7871 39.874 34.3389 39.8132 33.87C39.7524 33.4011 39.8024 32.9245 39.9591 32.4784C40.1755 31.6102 40.1926 30.7042 40.0091 29.8284C39.8831 29.2185 39.8939 28.5882 40.0409 27.9829C40.1879 27.3777 40.4674 26.8126 40.8591 26.3284C41.1591 25.9784 41.1591 25.8284 40.6591 25.7284C38.6146 25.2941 36.6325 24.6054 34.7591 23.6784C34.7459 23.6784 34.7331 23.6732 34.7238 23.6638C34.7144 23.6544 34.7091 23.6417 34.7091 23.6284C33.1091 23.0284 32.8091 23.1284 32.3591 24.7784C31.9591 26.1784 31.5591 27.5784 31.2591 29.0284C30.9091 30.6284 31.3091 32.1284 31.8091 33.6284C32.0091 34.2284 32.6091 34.1784 33.0591 34.3284C34.0591 34.6284 34.9091 35.0284 35.3091 36.0784C35.6591 36.8784 35.6091 36.9784 34.7591 36.9784C33.9091 36.9784 33.0591 36.9284 32.1591 36.9784C31.3997 36.9922 30.6584 36.7451 30.0591 36.2784C27.6591 34.6784 26.9591 32.2284 26.7591 29.5784C26.6591 27.9284 25.7591 26.6284 24.7091 25.3784C24.5091 25.1284 24.3091 25.0284 24.0091 25.2284C22.9359 25.8202 21.8153 26.3219 20.6591 26.7284C18.2462 27.5804 16.1289 29.1077 14.5591 31.1284C13.9729 31.8659 13.5933 32.746 13.4591 33.6784C13.3091 34.5784 13.5591 34.9784 14.4591 35.2284C15.3591 35.4784 15.8091 35.9784 15.9091 36.9284C15.9591 37.3284 15.8091 37.5284 15.4091 37.5284H11.3591C11.2266 37.519 11.0982 37.4778 10.9851 37.4081C10.8719 37.3385 10.7772 37.2425 10.7091 37.1284C10.081 36.3508 9.74494 35.3779 9.75912 34.3784C9.73288 32.6509 9.88366 30.9252 10.2091 29.2284C10.2759 28.7203 10.4656 28.2361 10.7618 27.8178C11.0581 27.3996 11.4519 27.06 11.9091 26.8284C14.8591 25.4284 16.4091 22.7784 17.8091 20.0284C18.1091 19.4784 17.8591 19.3784 17.3591 19.4284C15.9598 19.6227 14.634 20.1737 13.5091 21.0284C12.0362 22.1029 10.6487 23.2897 9.35912 24.5784C7.98394 25.9753 6.16046 26.8427 4.20911 27.0284C0.559114 27.2284 -1.14089 25.1784 -0.990885 21.8784C-0.957354 20.7532 -0.533061 19.6748 0.209115 18.8284C0.467126 18.4939 0.818981 18.2439 1.21975 18.1103C1.62052 17.9767 2.05201 17.9656 2.45912 18.0784C3.20912 18.2784 3.40911 18.6784 3.10911 19.4284C2.95911 19.7284 2.75911 19.9784 2.60911 20.2784C2.39341 20.5849 2.22488 20.922 2.10911 21.2784C1.55911 22.7784 2.30911 23.8284 3.85911 23.9784C5.50911 24.1284 6.85912 23.4284 8.10912 22.4284C9.61508 21.2226 10.9595 19.8277 12.1091 18.2784C12.9687 17.1471 14.0512 16.2041 15.2895 15.5075C16.5279 14.8109 17.8959 14.3756 19.3091 14.2284C20.4591 14.0784 21.4591 13.5784 22.5591 13.2784C24.6164 12.6512 26.7586 12.3476 28.9091 12.3784C29.9052 12.4199 30.8974 12.2317 31.8091 11.8284C34.2591 10.8284 36.8091 10.8284 39.3591 11.3284C41.3591 11.7284 43.3591 12.2284 45.3091 12.7284C46.4696 12.9447 47.6629 12.9106 48.8091 12.6284C51.0034 12.0722 53.248 11.7372 55.5091 11.6284C56.9904 11.5564 58.4667 11.8482 59.8091 12.4784C60.8091 12.9284 60.8091 12.9284 60.5591 13.8784Z" fill="black"></path></g><defs><clipPath id="puma-back_0"><rect width="67" height="28" fill="white" transform="translate(0 11)"></rect></clipPath></defs></svg><svg viewBox="0 0 18 18" fill="none" id="radiobutton-active"><circle cx="9" cy="9" r="9" fill="#68B738"></circle></svg><svg viewBox="0 0 25 28" fill="none" id="sheet"><path d="M24.8438 0.767C24.7434 0.317 24.3647 0 23.9325 0C23.9306 0 23.9288 0 23.9269 0C18.9891 0.033 6.98156 0.916 2.13375 8.38C-0.384376 12.258 -0.600938 17.293 1.48969 23.345C1.50562 23.392 1.53844 23.424 1.56 23.467C0.812812 25.44 0.523125 26.753 0.515624 26.79C0.406875 27.33 0.730312 27.862 1.23656 27.978C1.30219 27.993 1.36781 28 1.43344 28C1.86562 28 2.25469 27.679 2.34937 27.21C2.36906 27.108 4.75781 16.837 13.2028 10.832C13.6341 10.526 13.7503 9.905 13.4625 9.445C13.1747 8.985 12.5934 8.86 12.1622 9.168C7.37344 12.573 4.42406 17.176 2.68969 20.824C1.44844 16.246 1.77375 12.447 3.67594 9.519C7.41937 3.755 16.2984 2.365 21.6581 2.071C20.505 3.872 19.245 7.174 19.245 13C19.245 16.12 18.4153 18.522 16.7803 20.14C14.1591 22.731 9.90094 22.974 6.78656 22.724C6.26906 22.679 5.82 23.095 5.78062 23.646C5.74125 24.196 6.12844 24.676 6.64406 24.718C7.2675 24.769 7.93313 24.8 8.625 24.8C11.7956 24.8 15.4941 24.137 18.0544 21.606C20.0888 19.595 21.12 16.7 21.12 13.001C21.12 3.902 24.3356 1.905 24.3516 1.896C24.7416 1.687 24.9459 1.219 24.8438 0.767Z" fill="white"></path></svg><svg viewBox="0 0 40 40" fill="none" id="slider-button"><rect x="1" y="1" width="38" height="38" rx="19" fill="white"></rect><path d="M16 11L8 20L16 29V11Z" fill="#666666"></path><path d="M32 20L24 11V29L32 20Z" fill="#666666"></path><rect x="1" y="1" width="38" height="38" rx="19" stroke="#666666" stroke-width="2"></rect></svg><svg viewBox="0 0 28 22" fill="none" id="telegram"><path fill-rule="evenodd" clip-rule="evenodd" d="M23.4608 3.15291C23.6393 3.30222 23.7255 3.5349 23.6872 3.76448L21.0611 19.5214C21.0244 19.7411 20.8789 19.9273 20.6745 20.0159C20.47 20.1045 20.2346 20.0833 20.0493 19.9597L12.1708 14.7074C12.0177 14.6054 11.9145 14.4437 11.8862 14.2619C11.858 14.08 11.9074 13.8947 12.0223 13.751L14.633 10.4877L10.273 13.3944C10.077 13.525 9.82597 13.5407 9.61524 13.4353L4.36293 10.8092C4.12769 10.6915 3.98535 10.4449 4.0012 10.1824C4.01705 9.91983 4.18804 9.6921 4.43573 9.60364L22.8188 3.03826C23.038 2.95998 23.2822 3.00359 23.4608 3.15291ZM6.32626 10.3228L9.86168 12.0905L17.4231 7.0495C17.6925 6.86994 18.0525 6.91349 18.2712 7.1521C18.49 7.3907 18.5022 7.75314 18.3 8.00591L13.495 14.0121L19.9328 18.3039L22.2083 4.65058L6.32626 10.3228Z" fill="#666666"></path></svg><svg viewBox="0 0 27 17" fill="none" id="vk"><path d="M0 2.33876C0 1.48373 0.515103 1.02268 1.54531 0.955621L5.51515 0.980769C5.78158 0.980769 5.95921 1.10651 6.04802 1.35799C6.45655 2.61538 6.91392 3.70094 7.42014 4.61465C7.92637 5.52835 8.58801 6.58038 9.40507 7.77071C9.47611 7.9216 9.59157 7.99704 9.75143 7.99704C9.87576 7.99704 9.97345 7.93836 10.0445 7.82101L10.1244 7.54438L10.1511 3.19379C10.1511 2.89201 10.0756 2.69083 9.92461 2.59024C9.77363 2.48965 9.49388 2.4142 9.08535 2.36391C8.76563 2.31361 8.60577 2.12919 8.60577 1.81065C8.60577 1.74359 8.61465 1.69329 8.63241 1.65976C9.00542 0.57002 10.0711 0.0251479 11.8296 0.0251479L13.3216 0C13.9966 0 14.5561 0.15927 15.0001 0.477811C15.4442 0.796351 15.6662 1.29931 15.6662 1.98669V7.69527C15.7906 7.77909 15.906 7.82101 16.0126 7.82101C16.279 7.82101 16.5099 7.67012 16.7053 7.36834C18.6592 4.78649 19.716 3.05966 19.8759 2.18787C19.8759 2.1711 19.8936 2.12919 19.9291 2.06213C20.0535 1.81065 20.2577 1.5927 20.5419 1.40828C20.8261 1.22387 21.0748 1.09813 21.288 1.03107C21.359 0.997535 21.4389 0.980769 21.5277 0.980769H25.6574L25.9239 1.00592C26.2791 1.00592 26.5544 1.16519 26.7498 1.48373C26.8209 1.58432 26.8697 1.69329 26.8964 1.81065C26.923 1.92801 26.9408 2.04536 26.9496 2.16272C26.9585 2.28008 26.963 2.34714 26.963 2.36391V2.53994C26.8386 3.22732 26.5233 3.9608 26.0171 4.74038C25.5109 5.51997 24.867 6.36243 24.0855 7.26775C23.304 8.17308 22.8155 8.76825 22.6201 9.05326C22.4603 9.25444 22.3803 9.43886 22.3803 9.60651C22.3803 9.74063 22.4514 9.89152 22.5935 10.0592L26.4834 14.6864C26.6965 14.9546 26.8031 15.248 26.8031 15.5666C26.8031 15.9522 26.6432 16.2707 26.3235 16.5222C26.0038 16.7737 25.6219 16.9162 25.1779 16.9497L24.7249 16.9749H20.6752C20.6574 16.9749 20.6219 16.979 20.5686 16.9874C20.5153 16.9958 20.4798 17 20.462 17C20.0712 17 19.7071 16.8407 19.3696 16.5222C19.2453 16.3881 18.4105 15.3989 16.8652 13.5547C16.7764 13.4374 16.652 13.3284 16.4922 13.2278C16.4211 13.4961 16.3279 13.8817 16.2124 14.3846C16.097 14.8876 16.0126 15.248 15.9593 15.466L15.8794 15.8935C15.7018 16.4803 15.3287 16.8323 14.7604 16.9497L14.3874 16.9749H11.7763C10.3021 16.9749 8.83224 16.3378 7.36686 15.0636C5.90148 13.7894 4.58264 12.1423 3.41034 10.122C2.23803 8.10182 1.14566 5.75049 0.133216 3.06805C0.0444054 2.8501 0 2.607 0 2.33876ZM16.0126 8.85207C15.6396 8.85207 15.3021 8.75567 15.0001 8.56287C14.6982 8.37007 14.5472 8.10602 14.5472 7.77071V1.98669C14.5472 1.65138 14.4584 1.41248 14.2808 1.26997C14.1032 1.12747 13.7923 1.05621 13.3483 1.05621L11.8296 1.10651C11.0658 1.10651 10.4886 1.23225 10.0978 1.48373C10.8793 1.8358 11.2701 2.40582 11.2701 3.19379V7.61982C11.2346 8.03895 11.0569 8.38683 10.7372 8.66346C10.4175 8.94009 10.0623 9.0784 9.6715 9.0784C9.13863 9.0784 8.7301 8.83531 8.44591 8.34911C7.06046 6.37081 6.03025 4.4931 5.35529 2.71598L5.1155 2.06213L1.57195 2.03698C1.34104 2.03698 1.21227 2.04956 1.18562 2.0747C1.15898 2.09985 1.14566 2.1711 1.14566 2.28846C1.14566 2.43935 1.16342 2.59862 1.19895 2.76627L1.75845 4.17456C3.25048 7.81262 4.87127 10.6795 6.62085 12.7751C8.37042 14.8708 10.0889 15.9186 11.7763 15.9186H14.4406C14.5472 15.9186 14.6271 15.8893 14.6804 15.8306C14.7337 15.7719 14.7781 15.6588 14.8136 15.4911L14.8669 15.2396L15.3732 13.0266C15.5152 12.7249 15.6396 12.5237 15.7462 12.4231C15.9415 12.2387 16.1725 12.1465 16.4389 12.1465C16.8652 12.1465 17.3003 12.3895 17.7444 12.8757L20.0091 15.5917C20.1512 15.8097 20.3022 15.9186 20.462 15.9186H24.8581C25.391 15.9186 25.6574 15.7929 25.6574 15.5414C25.6574 15.4576 25.6308 15.3738 25.5775 15.2899L21.7142 10.7382C21.4123 10.3861 21.2613 10.0089 21.2613 9.60651C21.2613 9.20414 21.4034 8.81854 21.6876 8.4497C21.9185 8.1144 22.367 7.55695 23.0331 6.77737C23.6992 5.99778 24.2809 5.26849 24.7782 4.5895C25.2756 3.9105 25.6042 3.29438 25.764 2.74112L25.8439 2.4142C25.8262 2.38067 25.8173 2.32618 25.8173 2.25074C25.8173 2.1753 25.8084 2.11243 25.7907 2.06213H21.6077C21.3412 2.16272 21.1281 2.31361 20.9682 2.51479L20.8084 2.9926C20.3643 4.14941 19.2009 5.93491 17.3181 8.34911C16.9451 8.68442 16.5099 8.85207 16.0126 8.85207Z" fill="#666666"></path></svg><svg viewBox="0 0 27 29" fill="none" id="washing"><path d="M11.375 0C9.74375 0 8.475 1.35937 8.475 3.08125C8.475 4.80312 9.74375 6.1625 11.375 6.1625C13.0063 6.1625 14.275 4.80312 14.275 3.08125C14.275 1.35937 13.0063 0 11.375 0ZM11.375 1.17812C12.3719 1.17812 13.0969 2.02094 13.0969 3.08125C13.0969 4.07812 12.3084 4.98438 11.375 4.98438C10.3781 4.98438 9.65313 4.14156 9.65313 3.08125C9.65313 2.08437 10.4325 1.17812 11.375 1.17812ZM0.5 24.7406C0.5 25.9188 0.907813 26.9156 1.85938 27.7313C2.85625 28.5831 4.03438 28.5106 4.03438 28.5106H23.0656C23.845 28.5106 24.8781 28.13 25.6937 27.0606C26.5366 26.0638 26.4822 24.7044 26.4822 24.7044V7.48563C26.4822 7.05063 26.3734 6.8875 25.7391 6.8875C25.1047 6.8875 25.0503 7.15938 25.0503 7.47656V24.6953C25.0322 24.9944 24.9778 25.7828 24.3072 26.4172C23.5731 27.0425 22.8572 26.9609 22.8572 26.9609C22.8572 26.9609 4.73219 26.9609 3.82594 26.9338C3.48156 26.8703 2.91969 26.7434 2.37594 26.0275C1.86844 25.3025 1.96812 24.3962 1.96812 24.3962V7.1775C1.96812 6.71531 1.7325 6.54313 1.24313 6.54313C0.75375 6.54313 0.5 6.71531 0.5 7.12313V24.7406ZM16.8125 8.42813C15.725 8.66375 14.6375 8.80875 12.5531 10.7844C10.4688 12.7781 8.92813 12.6875 7.3875 12.5969C5.84688 12.5063 4.21563 11.0563 3.94375 10.6938C3.60844 10.3403 3.0375 10.5759 2.85625 10.8116C2.70219 11.0472 2.70219 11.455 2.965 11.8084C4.23375 12.9866 5.41188 13.8928 7.6775 14.0741C9.94312 14.2916 12.1181 13.2675 13.5681 11.8084C15.0181 10.3584 15.7431 10.0866 16.8306 9.90531C19.4587 9.48844 20.9994 10.5216 21.9056 11.1741C22.9025 12.2616 23.1744 11.9534 23.4462 11.6453C23.99 10.9294 23.2197 10.3766 22.3588 9.74219C20.5463 8.56406 18.8244 8.11094 16.8306 8.47344L16.8125 8.42813ZM7.75 15.5875C6.57188 15.5875 5.66562 16.5844 5.66562 17.8531C5.66562 19.1219 6.57188 20.1188 7.75 20.1188C8.92813 20.1188 9.83438 19.1219 9.83438 17.8531C9.83438 16.5844 8.92813 15.5875 7.75 15.5875ZM19.5312 16.3669C17.9906 16.3669 16.7219 17.7262 16.7219 19.3575C16.7219 20.9888 17.9906 22.3481 19.5312 22.3481C21.0719 22.3481 22.3406 20.9888 22.3406 19.3575C22.3406 17.7262 21.0719 16.3669 19.5312 16.3669ZM19.5312 17.8169C20.3288 17.8169 20.9813 18.5147 20.9813 19.3575C20.9813 20.2184 20.3288 20.8981 19.5312 20.8981C18.7337 20.8981 18.0812 20.2003 18.0812 19.3575C18.0812 18.4966 18.7337 17.8169 19.5312 17.8169Z" fill="white"></path></svg><svg viewBox="0 0 27 31" fill="none" id="watch"><path d="M6.12057 0C5.0538 0 5.0538 1.5831 6.12057 1.5831H12.7878V3.18731C5.96055 3.62002 0.562721 9.41417 0.562721 16.4854C0.562721 20.4959 2.31222 24.1159 5.07514 26.5539C5.55518 26.976 5.61919 27.7254 5.18181 28.1897L3.64567 29.7412C2.89894 30.4272 4.00837 31.4931 4.68043 30.7438L6.68595 28.7069C7.03798 28.3692 7.5607 28.2847 7.99807 28.4958C9.72279 29.3397 11.6191 29.784 13.5432 29.795C15.4673 29.8059 17.3687 29.3833 19.1031 28.5591C19.5298 28.348 20.0632 28.4325 20.4045 28.7702L22.3461 30.7438C23.0288 31.377 24.0102 30.4272 23.3915 29.7412L21.9407 28.2636C21.4926 27.8098 21.5567 27.0605 22.0474 26.6277C23.5031 25.3585 24.6674 23.7959 25.4623 22.0447C26.2571 20.2936 26.6641 18.3944 26.6558 16.4748C26.6558 9.40362 21.226 3.59891 14.388 3.18731V1.5831H21.0553C22.122 1.5831 22.122 0 21.0553 0H6.12057ZM2.00285 16.4748C2.00285 9.94187 7.198 4.65431 13.6093 4.65431C20.0098 4.65431 25.205 9.94187 25.205 16.4748C25.205 23.0183 20.0098 28.3164 13.6093 28.3164C7.20867 28.3164 2.00285 23.0183 2.00285 16.4748ZM12.7985 8.37988C12.7985 7.28226 14.4627 7.28226 14.4627 8.37988V17.0131C14.4627 17.237 14.3728 17.4517 14.2127 17.6101C14.0527 17.7684 13.8356 17.8574 13.6093 17.8574C13.3961 17.8574 13.1915 17.7743 13.0397 17.6262C12.888 17.478 12.8013 17.2767 12.7985 17.0658V8.37988ZM7.80605 10.9973C8.11444 10.9973 8.4102 10.8761 8.62826 10.6603C8.84632 10.4446 8.96883 10.152 8.96883 9.84688C8.96883 9.54178 8.84632 9.24918 8.62826 9.03344C8.4102 8.8177 8.11444 8.6965 7.80605 8.6965C7.51825 8.72386 7.25108 8.85633 7.05666 9.06805C6.86224 9.27977 6.75453 9.55556 6.75453 9.84161C6.75453 10.1277 6.86224 10.4034 7.05666 10.6152C7.25108 10.8269 7.51825 10.9593 7.80605 10.9867V10.9973ZM19.4018 10.9973C19.7102 10.9973 20.0059 10.8761 20.224 10.6603C20.4421 10.4446 20.5646 10.152 20.5646 9.84688C20.5646 9.54178 20.4421 9.24918 20.224 9.03344C20.0059 8.8177 19.7102 8.6965 19.4018 8.6965C19.114 8.72386 18.8468 8.85633 18.6524 9.06805C18.458 9.27977 18.3503 9.55556 18.3503 9.84161C18.3503 10.1277 18.458 10.4034 18.6524 10.6152C18.8468 10.8269 19.114 10.9593 19.4018 10.9867V10.9973ZM8.96883 23.5882C8.96883 25.1185 6.64328 25.1185 6.64328 23.5882C6.64328 22.0579 8.96883 22.0579 8.96883 23.5882ZM13.6093 27.0288C13.7706 27.0441 13.9334 27.0259 14.0872 26.9754C14.241 26.9248 14.3824 26.843 14.5024 26.7352C14.6223 26.6273 14.7182 26.4959 14.7838 26.3493C14.8494 26.2026 14.8833 26.044 14.8833 25.8837C14.8833 25.7233 14.8494 25.5648 14.7838 25.4181C14.7182 25.2715 14.6223 25.14 14.5024 25.0322C14.3824 24.9244 14.241 24.8426 14.0872 24.792C13.9334 24.7414 13.7706 24.7232 13.6093 24.7386C13.3215 24.7659 13.0543 24.8984 12.8599 25.1101C12.6654 25.3219 12.5577 25.5976 12.5577 25.8837C12.5577 26.1697 12.6654 26.4455 12.8599 26.6572C13.0543 26.869 13.3215 27.0014 13.6093 27.0288ZM5.49117 16.6437C5.50668 16.8033 5.48829 16.9643 5.43717 17.1165C5.38606 17.2687 5.30336 17.4086 5.19437 17.5273C5.08539 17.646 4.95252 17.7408 4.80431 17.8057C4.6561 17.8706 4.49581 17.9041 4.33373 17.9041C4.17166 17.9041 4.01137 17.8706 3.86316 17.8057C3.71494 17.7408 3.58208 17.646 3.4731 17.5273C3.36411 17.4086 3.28141 17.2687 3.23029 17.1165C3.17918 16.9643 3.16079 16.8033 3.17629 16.6437C3.20396 16.3589 3.33785 16.0946 3.55185 15.9023C3.76585 15.7099 4.04461 15.6033 4.33373 15.6033C4.62286 15.6033 4.90162 15.7099 5.11562 15.9023C5.32962 16.0946 5.46351 16.3589 5.49117 16.6437ZM22.8794 17.794C23.0408 17.8094 23.2036 17.7912 23.3574 17.7406C23.5112 17.6901 23.6526 17.6082 23.7726 17.5004C23.8925 17.3926 23.9884 17.2611 24.054 17.1145C24.1196 16.9679 24.1535 16.8093 24.1535 16.6489C24.1535 16.4886 24.1196 16.33 24.054 16.1834C23.9884 16.0367 23.8925 15.9053 23.7726 15.7975C23.6526 15.6896 23.5112 15.6078 23.3574 15.5573C23.2036 15.5067 23.0408 15.4885 22.8794 15.5038C22.5916 15.5312 22.3245 15.6637 22.13 15.8754C21.9356 16.0871 21.8279 16.3629 21.8279 16.6489C21.8279 16.935 21.9356 17.2108 22.13 17.4225C22.3245 17.6342 22.5916 17.7667 22.8794 17.794ZM20.5646 23.5987C20.5646 25.1185 18.239 25.1185 18.239 23.5882C18.239 22.0579 20.5646 22.0579 20.5646 23.5882V23.5987Z" fill="white"></path></svg><svg viewBox="0 0 24 19" fill="none" id="youtube"><path d="M15.8509 8.79275L10.6145 5.30184C10.5159 5.23691 10.4016 5.19985 10.2837 5.19459C10.1657 5.18934 10.0486 5.21608 9.94459 5.27198C9.84061 5.32789 9.75368 5.41087 9.69302 5.51215C9.63236 5.61343 9.60022 5.72924 9.6 5.84729V12.8291C9.60013 12.9481 9.6327 13.0648 9.69421 13.1667C9.75572 13.2686 9.84384 13.3518 9.94909 13.4073C10.0524 13.4631 10.1691 13.4895 10.2864 13.4837C10.4037 13.478 10.5172 13.4402 10.6145 13.3746L15.8509 9.88366C15.9409 9.82395 16.0148 9.7429 16.0658 9.64772C16.1169 9.55255 16.1436 9.44621 16.1436 9.3382C16.1436 9.23019 16.1169 9.12385 16.0658 9.02868C16.0148 8.93351 15.9409 8.85245 15.8509 8.79275ZM10.9091 11.6073V7.06911L14.3127 9.3382L10.9091 11.6073ZM23.3891 3.04366C23.2942 2.67547 23.1131 2.33511 22.8609 2.05061C22.6086 1.76611 22.2924 1.54561 21.9382 1.40729C18.2182 -0.0217993 12.2509 1.91553e-05 12 1.91553e-05C11.7491 1.91553e-05 5.78182 -0.0217993 2.06182 1.40729C1.70764 1.54561 1.3914 1.76611 1.13914 2.05061C0.886889 2.33511 0.705838 2.67547 0.610909 3.04366C0.327273 4.11275 0 6.07638 0 9.3382C0 12.6 0.327273 14.5637 0.610909 15.6327C0.705838 16.0009 0.886889 16.3413 1.13914 16.6258C1.3914 16.9103 1.70764 17.1308 2.06182 17.2691C5.78182 18.6982 11.7491 18.6764 12 18.6764H12.0764C12.8291 18.6764 18.3927 18.6327 21.9382 17.2691C22.2924 17.1308 22.6086 16.9103 22.8609 16.6258C23.1131 16.3413 23.2942 16.0009 23.3891 15.6327C23.6727 14.5637 24 12.6 24 9.3382C24 6.07638 23.6727 4.11275 23.3891 3.04366ZM22.1236 15.3055C22.0807 15.472 21.999 15.6259 21.8853 15.7548C21.7715 15.8838 21.6289 15.984 21.4691 16.0473C17.9782 17.3891 12.0655 17.3673 12 17.3673C11.9345 17.3673 6.02182 17.3891 2.53091 16.0473C2.37107 15.984 2.22846 15.8838 2.11471 15.7548C2.00096 15.6259 1.91929 15.472 1.87636 15.3055C1.61455 14.3018 1.30909 12.4582 1.30909 9.3382C1.30909 6.2182 1.61455 4.37457 1.87636 3.37093C1.91929 3.20445 2.00096 3.05047 2.11471 2.92156C2.22846 2.79264 2.37107 2.69243 2.53091 2.62911C6.02182 1.28729 11.9345 1.30911 12 1.30911C12.0655 1.30911 17.9782 1.28729 21.4691 2.62911C21.6289 2.69243 21.7715 2.79264 21.8853 2.92156C21.999 3.05047 22.0807 3.20445 22.1236 3.37093C22.3855 4.37457 22.6909 6.2182 22.6909 9.3382C22.6909 12.4582 22.3855 14.3018 22.1236 15.3055Z" fill="#666666"></path></svg></svg>